<?xml version="1.0" encoding="UTF-8"?>
<svg xmlns="http://www.w3.org/2000/svg" xmlns:xlink="http://www.w3.org/1999/xlink" width="367.362pt" height="155.071pt" viewBox="0 0 367.362 155.071">
<defs>
<g>
<g id="glyph-0-0">
<path d="M 2.96875 -2 C 2.96875 -2.71875 2.421875 -3.203125 1.734375 -3.203125 C 1.296875 -3.203125 0.96875 -3.109375 0.578125 -2.90625 L 0.609375 -2.390625 C 0.84375 -2.546875 1.1875 -2.75 1.734375 -2.75 C 2.046875 -2.75 2.359375 -2.515625 2.359375 -2 L 2.359375 -1.71875 C 1.328125 -1.6875 0.3125 -1.46875 0.3125 -0.828125 C 0.3125 -0.46875 0.546875 0.0625 1.15625 0.0625 C 1.46875 0.0625 2.015625 0 2.390625 -0.265625 L 2.390625 0 L 2.96875 0 Z M 2.359375 -0.984375 C 2.359375 -0.84375 2.359375 -0.671875 2.125 -0.515625 C 1.890625 -0.390625 1.625 -0.390625 1.546875 -0.390625 C 1.15625 -0.390625 0.875 -0.5625 0.875 -0.828125 C 0.875 -1.28125 2.046875 -1.3125 2.359375 -1.328125 Z M 2.359375 -0.984375 "/>
</g>
<g id="glyph-0-1">
<path d="M 1.3125 -2.65625 L 2.34375 -2.65625 L 2.34375 -3.09375 L 1.3125 -3.09375 L 1.3125 -3.984375 L 0.78125 -3.984375 L 0.78125 -3.09375 L 0.140625 -3.09375 L 0.140625 -2.65625 L 0.75 -2.65625 L 0.75 -0.890625 C 0.75 -0.421875 0.875 0.0625 1.375 0.0625 C 1.875 0.0625 2.265625 -0.09375 2.46875 -0.1875 L 2.34375 -0.640625 C 2.125 -0.46875 1.875 -0.40625 1.671875 -0.40625 C 1.390625 -0.40625 1.3125 -0.703125 1.3125 -1.015625 Z M 1.3125 -2.65625 "/>
</g>
<g id="glyph-0-2">
<path d="M 3.484375 -1.53125 C 3.484375 -2.453125 2.75 -3.203125 1.84375 -3.203125 C 0.9375 -3.203125 0.203125 -2.4375 0.203125 -1.53125 C 0.203125 -0.640625 0.953125 0.0625 1.84375 0.0625 C 2.75 0.0625 3.484375 -0.640625 3.484375 -1.53125 Z M 1.84375 -0.40625 C 1.296875 -0.40625 0.8125 -0.8125 0.8125 -1.609375 C 0.8125 -2.390625 1.328125 -2.734375 1.84375 -2.734375 C 2.375 -2.734375 2.875 -2.375 2.875 -1.609375 C 2.875 -0.8125 2.390625 -0.40625 1.84375 -0.40625 Z M 1.84375 -0.40625 "/>
</g>
<g id="glyph-0-3">
<path d="M 3.234375 -2.0625 C 3.234375 -2.609375 3.078125 -3.15625 2.21875 -3.15625 C 1.828125 -3.15625 1.4375 -3 1.140625 -2.640625 L 1.140625 -3.140625 L 0.578125 -3.140625 L 0.578125 0 L 1.1875 0 L 1.1875 -1.6875 C 1.1875 -2.15625 1.375 -2.703125 1.921875 -2.703125 C 2.640625 -2.703125 2.640625 -2.21875 2.640625 -2.015625 L 2.640625 0 L 3.234375 0 Z M 3.234375 -2.0625 "/>
</g>
<g id="glyph-0-4">
<path d="M 3 -0.765625 C 2.609375 -0.484375 2.171875 -0.390625 1.875 -0.390625 C 1.265625 -0.390625 0.796875 -0.890625 0.78125 -1.53125 L 3.0625 -1.53125 C 3.0625 -1.84375 3.03125 -2.3125 2.765625 -2.703125 C 2.515625 -3.0625 2.09375 -3.203125 1.75 -3.203125 C 0.90625 -3.203125 0.25 -2.453125 0.25 -1.5625 C 0.25 -0.671875 0.9375 0.0625 1.859375 0.0625 C 2.265625 0.0625 2.6875 -0.046875 3.03125 -0.265625 Z M 0.828125 -1.9375 C 0.984375 -2.5 1.40625 -2.734375 1.75 -2.734375 C 2.0625 -2.734375 2.515625 -2.59375 2.640625 -1.9375 Z M 0.828125 -1.9375 "/>
</g>
<g id="glyph-0-5">
<path d="M 1.171875 -1.484375 C 1.171875 -2.234375 1.8125 -2.640625 2.421875 -2.640625 L 2.421875 -3.15625 C 1.828125 -3.15625 1.40625 -2.875 1.125 -2.5 L 1.125 -3.140625 L 0.59375 -3.140625 L 0.59375 0 L 1.171875 0 Z M 1.171875 -1.484375 "/>
</g>
<g id="glyph-0-6">
<path d="M 1.328125 -2.65625 L 2.125 -2.65625 L 2.125 -3.09375 L 1.296875 -3.09375 L 1.296875 -3.890625 C 1.296875 -4.375 1.734375 -4.453125 1.96875 -4.453125 C 2.125 -4.453125 2.3125 -4.421875 2.5625 -4.328125 L 2.5625 -4.84375 C 2.390625 -4.875 2.171875 -4.90625 1.984375 -4.90625 C 1.265625 -4.90625 0.734375 -4.390625 0.734375 -3.703125 L 0.734375 -3.09375 L 0.203125 -3.09375 L 0.203125 -2.65625 L 0.734375 -2.65625 L 0.734375 0 L 1.328125 0 Z M 1.328125 -2.65625 "/>
</g>
<g id="glyph-0-7">
<path d="M 3.03125 -0.765625 C 2.6875 -0.53125 2.3125 -0.40625 1.875 -0.40625 C 1.234375 -0.40625 0.859375 -0.921875 0.859375 -1.546875 C 0.859375 -2.09375 1.140625 -2.71875 1.890625 -2.71875 C 2.375 -2.71875 2.59375 -2.625 2.953125 -2.390625 L 3.03125 -2.90625 C 2.625 -3.109375 2.4375 -3.203125 1.890625 -3.203125 C 0.84375 -3.203125 0.25 -2.359375 0.25 -1.546875 C 0.25 -0.703125 0.921875 0.0625 1.875 0.0625 C 2.359375 0.0625 2.78125 -0.078125 3.078125 -0.25 Z M 3.03125 -0.765625 "/>
</g>
<g id="glyph-0-8">
<path d="M 1.203125 -0.328125 C 1.5625 0 1.96875 0.0625 2.203125 0.0625 C 2.9375 0.0625 3.5625 -0.640625 3.5625 -1.546875 C 3.5625 -2.390625 3.109375 -3.15625 2.421875 -3.15625 C 2.109375 -3.15625 1.578125 -3.078125 1.171875 -2.765625 L 1.171875 -3.09375 L 0.59375 -3.09375 L 0.59375 1.359375 L 1.203125 1.359375 Z M 1.203125 -2.3125 C 1.359375 -2.515625 1.625 -2.6875 1.96875 -2.6875 C 2.515625 -2.6875 2.96875 -2.171875 2.96875 -1.546875 C 2.96875 -0.859375 2.4375 -0.390625 1.890625 -0.390625 C 1.796875 -0.390625 1.609375 -0.40625 1.4375 -0.546875 C 1.21875 -0.703125 1.203125 -0.8125 1.203125 -0.953125 Z M 1.203125 -2.3125 "/>
</g>
<g id="glyph-0-9">
<path d="M 1.21875 -4.78125 L 0.515625 -4.78125 L 0.515625 -4.078125 L 1.21875 -4.078125 Z M 1.171875 -3.09375 L 0.578125 -3.09375 L 0.578125 0 L 1.171875 0 Z M 1.171875 -3.09375 "/>
</g>
<g id="glyph-0-10">
<path d="M 1.34375 0 L 1.34375 -0.625 L 0.703125 -0.625 L 0.703125 0 L 0.90625 0 L 0.703125 0.890625 L 1.015625 0.890625 Z M 1.34375 0 "/>
</g>
<g id="glyph-0-11">
<path d="M 1.171875 -4.84375 L 0.578125 -4.84375 L 0.578125 0 L 1.171875 0 Z M 1.171875 -4.84375 "/>
</g>
<g id="glyph-0-12">
<path d="M 3.234375 -2.0625 C 3.234375 -2.609375 3.078125 -3.15625 2.21875 -3.15625 C 1.625 -3.15625 1.296875 -2.8125 1.15625 -2.671875 L 1.15625 -4.84375 L 0.578125 -4.84375 L 0.578125 0 L 1.1875 0 L 1.1875 -1.6875 C 1.1875 -2.15625 1.375 -2.703125 1.921875 -2.703125 C 2.640625 -2.703125 2.640625 -2.21875 2.640625 -2.015625 L 2.640625 0 L 3.234375 0 Z M 3.234375 -2.0625 "/>
</g>
<g id="glyph-0-13">
<path d="M 3.21875 -4.84375 L 2.640625 -4.84375 L 2.640625 -2.796875 C 2.1875 -3.125 1.734375 -3.15625 1.546875 -3.15625 C 0.8125 -3.15625 0.25 -2.4375 0.25 -1.546875 C 0.25 -0.65625 0.796875 0.0625 1.515625 0.0625 C 1.953125 0.0625 2.359375 -0.125 2.625 -0.359375 L 2.625 0 L 3.21875 0 Z M 2.625 -0.859375 C 2.453125 -0.578125 2.1875 -0.390625 1.84375 -0.390625 C 1.359375 -0.390625 0.859375 -0.734375 0.859375 -1.546875 C 0.859375 -2.40625 1.453125 -2.703125 1.921875 -2.703125 C 2.203125 -2.703125 2.4375 -2.578125 2.625 -2.34375 Z M 2.625 -0.859375 "/>
</g>
<g id="glyph-0-14">
<path d="M 3.234375 -3.09375 L 2.640625 -3.09375 L 2.640625 -1.078125 C 2.640625 -0.515625 2.15625 -0.34375 1.75 -0.34375 C 1.234375 -0.34375 1.1875 -0.484375 1.1875 -0.796875 L 1.1875 -3.09375 L 0.578125 -3.09375 L 0.578125 -0.765625 C 0.578125 -0.140625 0.84375 0.0625 1.34375 0.0625 C 1.625 0.0625 2.234375 0.015625 2.65625 -0.328125 L 2.65625 0 L 3.234375 0 Z M 3.234375 -3.09375 "/>
</g>
<g id="glyph-0-15">
<path d="M 2.546875 -2.984375 C 2.0625 -3.171875 1.71875 -3.203125 1.46875 -3.203125 C 1.296875 -3.203125 0.25 -3.203125 0.25 -2.265625 C 0.25 -1.9375 0.421875 -1.765625 0.515625 -1.671875 C 0.765625 -1.4375 1.046875 -1.375 1.421875 -1.3125 C 1.75 -1.25 2.125 -1.171875 2.125 -0.84375 C 2.125 -0.40625 1.546875 -0.40625 1.453125 -0.40625 C 1 -0.40625 0.578125 -0.5625 0.3125 -0.765625 L 0.203125 -0.234375 C 0.453125 -0.125 0.875 0.0625 1.453125 0.0625 C 1.765625 0.0625 2.0625 0.015625 2.328125 -0.171875 C 2.578125 -0.359375 2.671875 -0.671875 2.671875 -0.90625 C 2.671875 -1.03125 2.65625 -1.296875 2.359375 -1.5625 C 2.109375 -1.796875 1.859375 -1.84375 1.515625 -1.90625 C 1.109375 -1.984375 0.78125 -2.046875 0.78125 -2.359375 C 0.78125 -2.75 1.296875 -2.75 1.40625 -2.75 C 1.796875 -2.75 2.109375 -2.671875 2.453125 -2.484375 Z M 2.546875 -2.984375 "/>
</g>
<g id="glyph-0-16">
<path d="M 5.296875 -2.0625 C 5.296875 -2.609375 5.140625 -3.15625 4.28125 -3.15625 C 3.6875 -3.15625 3.328125 -2.828125 3.15625 -2.59375 C 3.09375 -2.78125 2.921875 -3.15625 2.21875 -3.15625 C 1.828125 -3.15625 1.4375 -3 1.140625 -2.640625 L 1.140625 -3.140625 L 0.578125 -3.140625 L 0.578125 0 L 1.1875 0 L 1.1875 -1.6875 C 1.1875 -2.15625 1.375 -2.703125 1.921875 -2.703125 C 2.640625 -2.703125 2.640625 -2.21875 2.640625 -2.015625 L 2.640625 0 L 3.234375 0 L 3.234375 -1.6875 C 3.234375 -2.15625 3.4375 -2.703125 3.96875 -2.703125 C 4.6875 -2.703125 4.6875 -2.21875 4.6875 -2.015625 L 4.6875 0 L 5.296875 0 Z M 5.296875 -2.0625 "/>
</g>
<g id="glyph-0-17">
<path d="M 1.34375 -0.625 L 0.703125 -0.625 L 0.703125 0 L 1.34375 0 Z M 1.34375 -0.625 "/>
</g>
<g id="glyph-0-18">
<path d="M 1.171875 -4.84375 L 0.59375 -4.84375 L 0.59375 0 L 1.203125 0 L 1.203125 -0.328125 C 1.359375 -0.1875 1.6875 0.0625 2.1875 0.0625 C 2.953125 0.0625 3.5625 -0.640625 3.5625 -1.546875 C 3.5625 -2.390625 3.09375 -3.15625 2.390625 -3.15625 C 1.953125 -3.15625 1.53125 -3.03125 1.171875 -2.765625 Z M 1.203125 -2.1875 C 1.203125 -2.3125 1.203125 -2.390625 1.4375 -2.546875 C 1.546875 -2.609375 1.734375 -2.703125 1.96875 -2.703125 C 2.4375 -2.703125 2.96875 -2.390625 2.96875 -1.546875 C 2.96875 -0.703125 2.390625 -0.390625 1.890625 -0.390625 C 1.640625 -0.390625 1.390625 -0.515625 1.203125 -0.828125 Z M 1.203125 -2.1875 "/>
</g>
<g id="glyph-0-19">
<path d="M 3.296875 -3.09375 L 2.75 -3.09375 C 1.796875 -0.765625 1.75 -0.578125 1.71875 -0.40625 C 1.65625 -0.6875 1.46875 -1.171875 1.25 -1.703125 L 0.6875 -3.09375 L 0.109375 -3.09375 L 1.375 0 L 2.03125 0 Z M 3.296875 -3.09375 "/>
</g>
<g id="glyph-0-20">
<path d="M 3.296875 -3.09375 L 2.734375 -3.09375 C 2.171875 -1.765625 1.78125 -0.859375 1.75 -0.4375 C 1.734375 -0.640625 1.609375 -0.984375 1.484375 -1.3125 C 1.375 -1.59375 1.265625 -1.875 1.140625 -2.140625 L 0.703125 -3.09375 L 0.109375 -3.09375 L 1.546875 0 C 1.46875 0.203125 1.328125 0.515625 1.28125 0.609375 C 1.140625 0.90625 1.03125 1 0.84375 1 C 0.828125 1 0.5625 1 0.265625 0.875 L 0.3125 1.359375 C 0.375 1.375 0.625 1.421875 0.84375 1.421875 C 1.125 1.421875 1.375 1.3125 1.671875 0.640625 Z M 3.296875 -3.09375 "/>
</g>
<g id="glyph-0-21">
<path d="M 4.953125 -3.09375 L 4.40625 -3.09375 C 4.34375 -2.90625 3.953125 -1.71875 3.734375 -1 C 3.671875 -0.796875 3.609375 -0.578125 3.59375 -0.40625 L 3.578125 -0.40625 C 3.546875 -0.703125 3.296875 -1.453125 3.28125 -1.5 L 2.765625 -3.09375 L 2.234375 -3.09375 C 2.03125 -2.5 1.515625 -0.9375 1.453125 -0.421875 C 1.390625 -0.921875 0.875 -2.453125 0.765625 -2.796875 C 0.703125 -2.96875 0.703125 -2.96875 0.671875 -3.09375 L 0.109375 -3.09375 L 1.125 0 L 1.703125 0 C 1.71875 -0.03125 1.90625 -0.578125 2.140625 -1.359375 C 2.25 -1.6875 2.453125 -2.359375 2.5 -2.671875 C 2.515625 -2.53125 2.5625 -2.375 2.609375 -2.203125 C 2.65625 -2.03125 2.703125 -1.84375 2.75 -1.671875 L 3.296875 0 L 3.9375 0 Z M 4.953125 -3.09375 "/>
</g>
<g id="glyph-0-22">
<path d="M 3.5 -3.15625 C 3.359375 -3.15625 2.890625 -3.15625 2.359375 -2.953125 L 2.34375 -2.953125 C 2.09375 -3.109375 1.84375 -3.15625 1.640625 -3.15625 C 0.96875 -3.15625 0.453125 -2.625 0.453125 -2.03125 C 0.453125 -1.78125 0.53125 -1.53125 0.703125 -1.34375 C 0.59375 -1.21875 0.5 -1.03125 0.5 -0.765625 C 0.5 -0.484375 0.609375 -0.3125 0.671875 -0.234375 C 0.28125 0 0.203125 0.3125 0.203125 0.484375 C 0.203125 1.015625 0.9375 1.421875 1.84375 1.421875 C 2.765625 1.421875 3.484375 1.015625 3.484375 0.484375 C 3.484375 -0.5 2.265625 -0.5 1.96875 -0.5 L 1.3125 -0.5 C 1.203125 -0.5 0.90625 -0.5 0.90625 -0.859375 C 0.90625 -1 0.953125 -1.078125 0.96875 -1.09375 C 1.203125 -0.9375 1.453125 -0.890625 1.640625 -0.890625 C 2.328125 -0.890625 2.828125 -1.421875 2.828125 -2.015625 C 2.828125 -2.25 2.765625 -2.453125 2.640625 -2.640625 C 2.609375 -2.671875 2.609375 -2.6875 2.609375 -2.6875 C 2.609375 -2.71875 3.03125 -2.71875 3.0625 -2.71875 C 3.078125 -2.71875 3.34375 -2.71875 3.59375 -2.6875 Z M 1.640625 -1.3125 C 1.265625 -1.3125 0.984375 -1.546875 0.984375 -2.015625 C 0.984375 -2.5625 1.34375 -2.734375 1.640625 -2.734375 C 2.015625 -2.734375 2.296875 -2.5 2.296875 -2.03125 C 2.296875 -1.484375 1.9375 -1.3125 1.640625 -1.3125 Z M 1.96875 0.046875 C 2.125 0.046875 2.953125 0.046875 2.953125 0.484375 C 2.953125 0.78125 2.4375 1 1.84375 1 C 1.265625 1 0.734375 0.78125 0.734375 0.484375 C 0.734375 0.453125 0.734375 0.046875 1.296875 0.046875 Z M 1.96875 0.046875 "/>
</g>
<g id="glyph-1-0">
<path d="M 1.640625 -1.40625 C 1.640625 -1.453125 1.8125 -2.078125 1.8125 -2.109375 C 1.828125 -2.171875 2.03125 -2.515625 2.265625 -2.6875 C 2.328125 -2.734375 2.515625 -2.875 2.828125 -2.875 C 2.890625 -2.875 3.0625 -2.875 3.203125 -2.78125 C 2.984375 -2.71875 2.90625 -2.515625 2.90625 -2.390625 C 2.90625 -2.25 3.015625 -2.140625 3.171875 -2.140625 C 3.34375 -2.140625 3.5625 -2.265625 3.5625 -2.5625 C 3.5625 -2.921875 3.1875 -3.078125 2.828125 -3.078125 C 2.46875 -3.078125 2.15625 -2.921875 1.84375 -2.578125 C 1.71875 -3 1.296875 -3.078125 1.125 -3.078125 C 0.875 -3.078125 0.703125 -2.90625 0.578125 -2.71875 C 0.421875 -2.453125 0.328125 -2.046875 0.328125 -2 C 0.328125 -1.921875 0.421875 -1.921875 0.453125 -1.921875 C 0.546875 -1.921875 0.546875 -1.9375 0.59375 -2.125 C 0.703125 -2.546875 0.84375 -2.875 1.109375 -2.875 C 1.296875 -2.875 1.34375 -2.71875 1.34375 -2.53125 C 1.34375 -2.40625 1.28125 -2.140625 1.21875 -1.953125 C 1.171875 -1.765625 1.109375 -1.484375 1.078125 -1.328125 L 0.84375 -0.4375 C 0.828125 -0.34375 0.78125 -0.171875 0.78125 -0.15625 C 0.78125 0 0.90625 0.0625 1.015625 0.0625 C 1.125 0.0625 1.265625 0 1.3125 -0.125 C 1.328125 -0.171875 1.40625 -0.484375 1.453125 -0.65625 Z M 1.640625 -1.40625 "/>
</g>
<g id="glyph-1-1">
<path d="M 2.1875 -4.625 C 2.1875 -4.640625 2.203125 -4.734375 2.203125 -4.734375 C 2.203125 -4.78125 2.1875 -4.84375 2.09375 -4.84375 C 1.953125 -4.84375 1.375 -4.78125 1.203125 -4.765625 C 1.15625 -4.765625 1.046875 -4.75 1.046875 -4.609375 C 1.046875 -4.515625 1.15625 -4.515625 1.234375 -4.515625 C 1.5625 -4.515625 1.5625 -4.453125 1.5625 -4.40625 C 1.5625 -4.359375 1.546875 -4.3125 1.546875 -4.25 L 0.5625 -0.3125 C 0.515625 -0.1875 0.515625 -0.171875 0.515625 -0.15625 C 0.515625 -0.046875 0.609375 0.0625 0.765625 0.0625 C 0.84375 0.0625 0.96875 0.03125 1.046875 -0.109375 C 1.0625 -0.15625 1.125 -0.40625 1.15625 -0.546875 L 1.328125 -1.171875 C 1.34375 -1.28125 1.421875 -1.546875 1.4375 -1.640625 C 1.5 -1.90625 1.5 -1.921875 1.640625 -2.140625 C 1.875 -2.484375 2.21875 -2.875 2.765625 -2.875 C 3.15625 -2.875 3.171875 -2.5625 3.171875 -2.390625 C 3.171875 -1.96875 2.875 -1.203125 2.765625 -0.90625 C 2.6875 -0.703125 2.65625 -0.640625 2.65625 -0.53125 C 2.65625 -0.15625 2.96875 0.0625 3.3125 0.0625 C 4.015625 0.0625 4.328125 -0.890625 4.328125 -1 C 4.328125 -1.09375 4.234375 -1.09375 4.203125 -1.09375 C 4.109375 -1.09375 4.109375 -1.046875 4.078125 -0.96875 C 3.921875 -0.40625 3.609375 -0.125 3.34375 -0.125 C 3.1875 -0.125 3.15625 -0.21875 3.15625 -0.375 C 3.15625 -0.53125 3.203125 -0.625 3.328125 -0.9375 C 3.40625 -1.15625 3.6875 -1.890625 3.6875 -2.28125 C 3.6875 -2.390625 3.6875 -2.6875 3.4375 -2.890625 C 3.3125 -2.96875 3.109375 -3.078125 2.78125 -3.078125 C 2.28125 -3.078125 1.90625 -2.796875 1.65625 -2.5 Z M 2.1875 -4.625 "/>
</g>
<g id="glyph-1-2">
<path d="M 1.734375 -0.734375 C 1.671875 -0.5 1.4375 -0.125 1.078125 -0.125 C 1.0625 -0.125 0.84375 -0.125 0.703125 -0.21875 C 0.984375 -0.3125 1.015625 -0.5625 1.015625 -0.609375 C 1.015625 -0.765625 0.890625 -0.859375 0.734375 -0.859375 C 0.53125 -0.859375 0.328125 -0.703125 0.328125 -0.4375 C 0.328125 -0.09375 0.71875 0.0625 1.0625 0.0625 C 1.390625 0.0625 1.671875 -0.125 1.84375 -0.421875 C 2.015625 -0.0625 2.390625 0.0625 2.671875 0.0625 C 3.484375 0.0625 3.90625 -0.796875 3.90625 -1 C 3.90625 -1.09375 3.8125 -1.09375 3.796875 -1.09375 C 3.6875 -1.09375 3.6875 -1.046875 3.65625 -0.96875 C 3.515625 -0.484375 3.09375 -0.125 2.703125 -0.125 C 2.421875 -0.125 2.28125 -0.3125 2.28125 -0.578125 C 2.28125 -0.765625 2.453125 -1.390625 2.640625 -2.171875 C 2.78125 -2.703125 3.09375 -2.875 3.328125 -2.875 C 3.34375 -2.875 3.546875 -2.875 3.703125 -2.78125 C 3.484375 -2.71875 3.390625 -2.515625 3.390625 -2.390625 C 3.390625 -2.25 3.515625 -2.140625 3.671875 -2.140625 C 3.828125 -2.140625 4.0625 -2.265625 4.0625 -2.5625 C 4.0625 -2.953125 3.609375 -3.078125 3.34375 -3.078125 C 2.984375 -3.078125 2.703125 -2.84375 2.5625 -2.578125 C 2.4375 -2.859375 2.109375 -3.078125 1.71875 -3.078125 C 0.9375 -3.078125 0.5 -2.21875 0.5 -2 C 0.5 -1.921875 0.59375 -1.921875 0.609375 -1.921875 C 0.703125 -1.921875 0.703125 -1.9375 0.75 -2.03125 C 0.921875 -2.578125 1.359375 -2.875 1.703125 -2.875 C 1.9375 -2.875 2.125 -2.75 2.125 -2.421875 C 2.125 -2.28125 2.03125 -1.9375 1.96875 -1.6875 Z M 1.734375 -0.734375 "/>
</g>
<g id="glyph-1-3">
<path d="M 5.859375 -4.1875 C 5.921875 -4.453125 5.9375 -4.515625 6.453125 -4.515625 C 6.609375 -4.515625 6.6875 -4.515625 6.6875 -4.65625 C 6.6875 -4.6875 6.671875 -4.765625 6.578125 -4.765625 C 6.375 -4.765625 5.875 -4.734375 5.671875 -4.734375 C 5.546875 -4.734375 5.296875 -4.734375 5.1875 -4.734375 C 5.046875 -4.75 4.875 -4.765625 4.75 -4.765625 C 4.703125 -4.765625 4.59375 -4.765625 4.59375 -4.609375 C 4.59375 -4.515625 4.6875 -4.515625 4.828125 -4.515625 C 4.828125 -4.515625 4.96875 -4.515625 5.09375 -4.5 C 5.234375 -4.484375 5.25 -4.46875 5.25 -4.390625 C 5.25 -4.390625 5.25 -4.34375 5.21875 -4.25 L 4.8125 -2.59375 L 2.46875 -2.59375 L 2.875 -4.21875 C 2.9375 -4.453125 2.953125 -4.515625 3.484375 -4.515625 C 3.609375 -4.515625 3.703125 -4.515625 3.703125 -4.65625 C 3.703125 -4.6875 3.671875 -4.765625 3.59375 -4.765625 C 3.390625 -4.765625 2.875 -4.734375 2.671875 -4.734375 C 2.5625 -4.734375 2.3125 -4.734375 2.1875 -4.734375 C 2.0625 -4.75 1.890625 -4.765625 1.75 -4.765625 C 1.71875 -4.765625 1.609375 -4.765625 1.609375 -4.609375 C 1.609375 -4.515625 1.6875 -4.515625 1.828125 -4.515625 C 1.84375 -4.515625 1.96875 -4.515625 2.09375 -4.5 C 2.25 -4.484375 2.265625 -4.46875 2.265625 -4.390625 C 2.265625 -4.390625 2.265625 -4.34375 2.234375 -4.25 L 1.296875 -0.546875 C 1.25 -0.3125 1.234375 -0.25 0.6875 -0.25 C 0.578125 -0.25 0.484375 -0.25 0.484375 -0.109375 C 0.484375 -0.03125 0.53125 0 0.59375 0 C 0.796875 0 1.296875 -0.03125 1.5 -0.03125 C 1.609375 -0.03125 1.859375 -0.03125 1.984375 -0.015625 C 2.125 -0.015625 2.296875 0 2.421875 0 C 2.453125 0 2.578125 0 2.578125 -0.140625 C 2.578125 -0.25 2.5 -0.25 2.34375 -0.25 C 2.234375 -0.25 2.203125 -0.25 2.078125 -0.265625 C 1.921875 -0.28125 1.921875 -0.296875 1.921875 -0.375 C 1.921875 -0.375 1.921875 -0.421875 1.953125 -0.515625 L 2.40625 -2.34375 L 4.75 -2.34375 L 4.296875 -0.546875 C 4.234375 -0.3125 4.21875 -0.25 3.671875 -0.25 C 3.5625 -0.25 3.46875 -0.25 3.46875 -0.109375 C 3.46875 -0.03125 3.515625 0 3.578125 0 C 3.78125 0 4.28125 -0.03125 4.484375 -0.03125 C 4.609375 -0.03125 4.84375 -0.03125 4.96875 -0.015625 C 5.109375 -0.015625 5.28125 0 5.421875 0 C 5.453125 0 5.5625 0 5.5625 -0.140625 C 5.5625 -0.25 5.484375 -0.25 5.328125 -0.25 C 5.21875 -0.25 5.1875 -0.25 5.0625 -0.265625 C 4.90625 -0.28125 4.90625 -0.296875 4.90625 -0.375 C 4.90625 -0.40625 4.9375 -0.484375 4.9375 -0.515625 Z M 5.859375 -4.1875 "/>
</g>
<g id="glyph-1-4">
<path d="M 1.3125 -0.546875 C 1.265625 -0.3125 1.25 -0.25 0.703125 -0.25 C 0.578125 -0.25 0.5 -0.25 0.5 -0.09375 C 0.5 0 0.578125 0 0.703125 0 L 3.1875 0 C 4.734375 0 6.21875 -1.421875 6.21875 -2.9375 C 6.21875 -3.953125 5.515625 -4.765625 4.390625 -4.765625 L 1.84375 -4.765625 C 1.703125 -4.765625 1.625 -4.765625 1.625 -4.609375 C 1.625 -4.515625 1.703125 -4.515625 1.859375 -4.515625 C 1.96875 -4.515625 2 -4.515625 2.125 -4.5 C 2.265625 -4.484375 2.265625 -4.46875 2.265625 -4.390625 C 2.265625 -4.390625 2.265625 -4.34375 2.25 -4.25 Z M 2.875 -4.265625 C 2.9375 -4.484375 2.9375 -4.515625 3.234375 -4.515625 L 4.125 -4.515625 C 4.90625 -4.515625 5.5625 -4.125 5.5625 -3.171875 C 5.5625 -3.015625 5.484375 -1.8125 4.796875 -1.015625 C 4.515625 -0.703125 3.921875 -0.25 3.0625 -0.25 L 2.125 -0.25 C 1.90625 -0.25 1.890625 -0.265625 1.890625 -0.328125 C 1.890625 -0.328125 1.890625 -0.359375 1.921875 -0.46875 Z M 2.875 -4.265625 "/>
</g>
<g id="glyph-1-5">
<path d="M 4.921875 -4 C 5 -4.265625 5.109375 -4.5 5.671875 -4.515625 C 5.703125 -4.515625 5.8125 -4.515625 5.8125 -4.65625 C 5.8125 -4.703125 5.765625 -4.765625 5.703125 -4.765625 C 5.484375 -4.765625 5.21875 -4.734375 4.984375 -4.734375 C 4.75 -4.734375 4.453125 -4.765625 4.25 -4.765625 C 4.21875 -4.765625 4.109375 -4.765625 4.109375 -4.609375 C 4.109375 -4.515625 4.203125 -4.515625 4.265625 -4.515625 C 4.59375 -4.5 4.703125 -4.390625 4.703125 -4.21875 C 4.703125 -4.1875 4.703125 -4.15625 4.703125 -4.125 C 4.59375 -3.671875 4.078125 -1.578125 4 -1.359375 C 3.609375 -0.46875 2.78125 -0.109375 2.21875 -0.109375 C 1.75 -0.109375 1.25 -0.34375 1.25 -1.03125 C 1.25 -1.203125 1.28125 -1.375 1.3125 -1.53125 L 2 -4.21875 C 2.0625 -4.453125 2.0625 -4.515625 2.609375 -4.515625 C 2.71875 -4.515625 2.8125 -4.515625 2.8125 -4.65625 C 2.8125 -4.6875 2.796875 -4.765625 2.703125 -4.765625 C 2.5 -4.765625 2 -4.734375 1.796875 -4.734375 C 1.671875 -4.734375 1.421875 -4.734375 1.3125 -4.734375 C 1.171875 -4.75 1 -4.765625 0.875 -4.765625 C 0.828125 -4.765625 0.71875 -4.765625 0.71875 -4.609375 C 0.71875 -4.515625 0.8125 -4.515625 0.953125 -4.515625 C 0.953125 -4.515625 1.09375 -4.515625 1.21875 -4.5 C 1.359375 -4.484375 1.375 -4.46875 1.375 -4.390625 C 1.375 -4.359375 1.296875 -4.078125 1.265625 -3.9375 L 1.109375 -3.3125 L 0.703125 -1.71875 C 0.640625 -1.4375 0.640625 -1.375 0.640625 -1.234375 C 0.640625 -0.375 1.359375 0.140625 2.1875 0.140625 C 3.15625 0.140625 4.078125 -0.640625 4.3125 -1.546875 Z M 4.921875 -4 "/>
</g>
<g id="glyph-1-6">
<path d="M 4.15625 -4.21875 C 4.21875 -4.46875 4.234375 -4.515625 4.625 -4.515625 C 4.703125 -4.515625 4.796875 -4.515625 4.796875 -4.65625 C 4.796875 -4.734375 4.75 -4.765625 4.703125 -4.765625 C 4.53125 -4.765625 4.109375 -4.734375 3.9375 -4.734375 C 3.796875 -4.734375 3.5625 -4.734375 3.40625 -4.734375 C 3.234375 -4.75 3.03125 -4.765625 2.859375 -4.765625 C 2.8125 -4.765625 2.703125 -4.765625 2.703125 -4.609375 C 2.703125 -4.515625 2.765625 -4.515625 2.96875 -4.515625 C 3.140625 -4.515625 3.15625 -4.515625 3.34375 -4.5 C 3.546875 -4.46875 3.5625 -4.453125 3.5625 -4.375 C 3.5625 -4.328125 3.5625 -4.3125 3.53125 -4.203125 L 2.734375 -1.015625 C 2.59375 -0.5 2.15625 -0.0625 1.703125 -0.0625 C 1.609375 -0.0625 1.15625 -0.078125 1 -0.421875 C 1.40625 -0.421875 1.5 -0.75 1.5 -0.875 C 1.5 -1.0625 1.328125 -1.171875 1.171875 -1.171875 C 0.984375 -1.171875 0.703125 -1.015625 0.703125 -0.625 C 0.703125 -0.171875 1.140625 0.140625 1.71875 0.140625 C 2.40625 0.140625 3.171875 -0.296875 3.359375 -1 Z M 4.15625 -4.21875 "/>
</g>
<g id="glyph-2-0">
<path d="M 1.828125 -3.265625 C 1.859375 -3.34375 1.859375 -3.34375 1.859375 -3.375 C 1.859375 -3.453125 1.78125 -3.453125 1.703125 -3.453125 L 1.09375 -3.40625 C 1 -3.40625 0.984375 -3.40625 0.96875 -3.375 C 0.953125 -3.359375 0.9375 -3.296875 0.9375 -3.265625 C 0.9375 -3.1875 1.015625 -3.1875 1.078125 -3.1875 C 1.09375 -3.1875 1.171875 -3.1875 1.25 -3.171875 C 1.34375 -3.15625 1.34375 -3.140625 1.34375 -3.109375 C 1.34375 -3.09375 1.34375 -3.078125 1.328125 -2.984375 L 0.640625 -0.234375 C 0.625 -0.171875 0.625 -0.15625 0.625 -0.125 C 0.625 -0.015625 0.703125 0.0625 0.8125 0.0625 C 1 0.0625 1.046875 -0.125 1.0625 -0.203125 L 1.296875 -1.109375 C 1.421875 -1.109375 2.046875 -1.078125 2.046875 -0.71875 C 2.046875 -0.6875 2.046875 -0.671875 2.03125 -0.609375 C 2.015625 -0.53125 2.015625 -0.515625 2.015625 -0.484375 C 2.015625 -0.125 2.328125 0.0625 2.625 0.0625 C 3.125 0.0625 3.328125 -0.65625 3.328125 -0.71875 C 3.328125 -0.78125 3.25 -0.78125 3.21875 -0.78125 C 3.140625 -0.78125 3.125 -0.765625 3.109375 -0.671875 C 3.0625 -0.5 2.90625 -0.109375 2.640625 -0.109375 C 2.453125 -0.109375 2.4375 -0.296875 2.4375 -0.40625 C 2.4375 -0.40625 2.4375 -0.484375 2.453125 -0.5625 C 2.46875 -0.640625 2.484375 -0.703125 2.484375 -0.734375 C 2.484375 -1.171875 1.921875 -1.25 1.59375 -1.28125 C 1.734375 -1.359375 1.953125 -1.53125 2.03125 -1.59375 C 2.3125 -1.8125 2.59375 -2.03125 2.875 -2.03125 C 2.984375 -2.03125 3.015625 -2 3.046875 -1.96875 C 3.046875 -1.96875 3.015625 -1.953125 3 -1.953125 C 2.78125 -1.875 2.78125 -1.671875 2.78125 -1.65625 C 2.78125 -1.578125 2.84375 -1.453125 3 -1.453125 C 3.09375 -1.453125 3.3125 -1.53125 3.3125 -1.8125 C 3.3125 -2.046875 3.125 -2.203125 2.875 -2.203125 C 2.546875 -2.203125 2.25 -1.96875 1.890625 -1.6875 C 1.71875 -1.546875 1.546875 -1.421875 1.34375 -1.328125 Z M 1.828125 -3.265625 "/>
</g>
<g id="glyph-3-0">
<path d="M 5.359375 -2.34375 C 5.453125 -2.34375 5.609375 -2.34375 5.609375 -2.515625 C 5.609375 -2.6875 5.453125 -2.6875 5.359375 -2.6875 L 0.75 -2.6875 C 0.65625 -2.6875 0.484375 -2.6875 0.484375 -2.515625 C 0.484375 -2.34375 0.640625 -2.34375 0.75 -2.34375 Z M 5.359375 -0.8125 C 5.453125 -0.8125 5.609375 -0.8125 5.609375 -0.96875 C 5.609375 -1.15625 5.453125 -1.15625 5.359375 -1.15625 L 0.75 -1.15625 C 0.640625 -1.15625 0.484375 -1.15625 0.484375 -0.96875 C 0.484375 -0.8125 0.65625 -0.8125 0.75 -0.8125 Z M 5.359375 -0.8125 "/>
</g>
<g id="glyph-3-1">
<path d="M 2.328125 -4.4375 C 2.328125 -4.625 2.328125 -4.625 2.125 -4.625 C 1.671875 -4.1875 1.046875 -4.1875 0.765625 -4.1875 L 0.765625 -3.9375 C 0.921875 -3.9375 1.390625 -3.9375 1.765625 -4.125 L 1.765625 -0.578125 C 1.765625 -0.34375 1.765625 -0.25 1.078125 -0.25 L 0.8125 -0.25 L 0.8125 0 C 0.9375 0 1.796875 -0.03125 2.046875 -0.03125 C 2.265625 -0.03125 3.140625 0 3.296875 0 L 3.296875 -0.25 L 3.03125 -0.25 C 2.328125 -0.25 2.328125 -0.34375 2.328125 -0.578125 Z M 2.328125 -4.4375 "/>
</g>
<g id="glyph-3-2">
<path d="M 1.984375 -4.84375 L 0.9375 -3.90625 L 1.09375 -3.734375 L 1.984375 -4.421875 L 2.859375 -3.734375 L 3.015625 -3.90625 Z M 1.984375 -4.84375 "/>
</g>
<g id="glyph-3-3">
<path d="M 3.515625 -1.265625 L 3.28125 -1.265625 C 3.265625 -1.109375 3.1875 -0.703125 3.09375 -0.640625 C 3.046875 -0.59375 2.515625 -0.59375 2.40625 -0.59375 L 1.125 -0.59375 C 1.859375 -1.234375 2.109375 -1.4375 2.515625 -1.765625 C 3.03125 -2.171875 3.515625 -2.609375 3.515625 -3.265625 C 3.515625 -4.109375 2.78125 -4.625 1.890625 -4.625 C 1.03125 -4.625 0.4375 -4.015625 0.4375 -3.375 C 0.4375 -3.03125 0.734375 -2.984375 0.8125 -2.984375 C 0.96875 -2.984375 1.171875 -3.109375 1.171875 -3.359375 C 1.171875 -3.484375 1.125 -3.734375 0.765625 -3.734375 C 0.984375 -4.21875 1.453125 -4.375 1.78125 -4.375 C 2.484375 -4.375 2.84375 -3.828125 2.84375 -3.265625 C 2.84375 -2.65625 2.40625 -2.1875 2.1875 -1.9375 L 0.515625 -0.265625 C 0.4375 -0.203125 0.4375 -0.1875 0.4375 0 L 3.3125 0 Z M 3.515625 -1.265625 "/>
</g>
<g id="glyph-4-0">
<path d="M 1.984375 -3.171875 C 1.984375 -3.3125 1.96875 -3.3125 1.796875 -3.3125 C 1.453125 -3 0.890625 -3 0.796875 -3 L 0.71875 -3 L 0.71875 -2.78125 L 0.796875 -2.78125 C 0.90625 -2.78125 1.234375 -2.796875 1.53125 -2.921875 L 1.53125 -0.421875 C 1.53125 -0.28125 1.53125 -0.21875 1 -0.21875 L 0.75 -0.21875 L 0.75 0 C 1.015625 -0.015625 1.46875 -0.015625 1.75 -0.015625 C 2.046875 -0.015625 2.484375 -0.015625 2.765625 0 L 2.765625 -0.21875 L 2.515625 -0.21875 C 1.984375 -0.21875 1.984375 -0.28125 1.984375 -0.421875 Z M 1.984375 -3.171875 "/>
</g>
<g id="glyph-4-1">
<path d="M 2.9375 -0.96875 L 2.71875 -0.96875 C 2.71875 -0.875 2.65625 -0.5625 2.578125 -0.515625 C 2.546875 -0.484375 2.125 -0.484375 2.046875 -0.484375 L 1.078125 -0.484375 C 1.40625 -0.71875 1.765625 -1 2.0625 -1.203125 C 2.515625 -1.515625 2.9375 -1.796875 2.9375 -2.328125 C 2.9375 -2.96875 2.328125 -3.3125 1.625 -3.3125 C 0.953125 -3.3125 0.453125 -2.9375 0.453125 -2.4375 C 0.453125 -2.1875 0.671875 -2.140625 0.75 -2.140625 C 0.875 -2.140625 1.03125 -2.234375 1.03125 -2.4375 C 1.03125 -2.609375 0.90625 -2.71875 0.75 -2.71875 C 0.890625 -2.953125 1.1875 -3.09375 1.515625 -3.09375 C 2 -3.09375 2.40625 -2.8125 2.40625 -2.328125 C 2.40625 -1.90625 2.109375 -1.578125 1.734375 -1.265625 L 0.515625 -0.234375 C 0.46875 -0.1875 0.453125 -0.1875 0.453125 -0.15625 L 0.453125 0 L 2.765625 0 Z M 2.9375 -0.96875 "/>
</g>
<g id="glyph-4-2">
<path d="M 1.640625 -1.65625 C 2.109375 -1.65625 2.40625 -1.359375 2.40625 -0.875 C 2.40625 -0.359375 2.09375 -0.09375 1.65625 -0.09375 C 1.59375 -0.09375 1 -0.09375 0.75 -0.359375 C 0.953125 -0.390625 1.015625 -0.53125 1.015625 -0.65625 C 1.015625 -0.84375 0.875 -0.96875 0.703125 -0.96875 C 0.546875 -0.96875 0.40625 -0.859375 0.40625 -0.640625 C 0.40625 -0.125 0.984375 0.109375 1.671875 0.109375 C 2.484375 0.109375 2.984375 -0.390625 2.984375 -0.875 C 2.984375 -1.28125 2.625 -1.625 2.0625 -1.75 C 2.65625 -1.953125 2.8125 -2.328125 2.8125 -2.609375 C 2.8125 -3.015625 2.3125 -3.3125 1.6875 -3.3125 C 1.0625 -3.3125 0.578125 -3.0625 0.578125 -2.609375 C 0.578125 -2.375 0.765625 -2.3125 0.859375 -2.3125 C 1 -2.3125 1.140625 -2.421875 1.140625 -2.609375 C 1.140625 -2.71875 1.078125 -2.859375 0.90625 -2.890625 C 1.109375 -3.109375 1.5625 -3.125 1.671875 -3.125 C 2.03125 -3.125 2.28125 -2.953125 2.28125 -2.609375 C 2.28125 -2.3125 2.09375 -1.859375 1.578125 -1.828125 C 1.4375 -1.828125 1.421875 -1.828125 1.28125 -1.8125 C 1.234375 -1.8125 1.171875 -1.8125 1.171875 -1.734375 C 1.171875 -1.65625 1.21875 -1.65625 1.3125 -1.65625 Z M 1.640625 -1.65625 "/>
</g>
<g id="glyph-5-0">
<path d="M 4.875 -3.265625 C 4.953125 -3.34375 4.96875 -3.390625 4.96875 -3.4375 C 4.96875 -3.546875 4.890625 -3.609375 4.8125 -3.609375 C 4.734375 -3.609375 4.71875 -3.59375 4.640625 -3.5 L 3.109375 -1.984375 L 1.578125 -3.515625 C 1.5 -3.578125 1.484375 -3.609375 1.421875 -3.609375 C 1.3125 -3.609375 1.234375 -3.53125 1.234375 -3.4375 C 1.234375 -3.375 1.265625 -3.359375 1.34375 -3.265625 L 2.859375 -1.75 L 1.34375 -0.234375 C 1.25 -0.125 1.234375 -0.09375 1.234375 -0.0625 C 1.234375 0.046875 1.3125 0.125 1.421875 0.125 C 1.484375 0.125 1.5 0.09375 1.578125 0.015625 L 3.109375 -1.5 L 4.703125 0.078125 C 4.734375 0.109375 4.765625 0.125 4.8125 0.125 C 4.890625 0.125 4.96875 0.0625 4.96875 -0.0625 C 4.96875 -0.109375 4.96875 -0.125 4.9375 -0.140625 C 4.921875 -0.171875 3.578125 -1.53125 3.359375 -1.734375 Z M 4.875 -3.265625 "/>
</g>
</g>
</defs>
<g fill="rgb(13.723755%, 23.922729%, 30.195618%)" fill-opacity="1">
<use xlink:href="#glyph-0-0" x="34.912" y="18.126"/>
<use xlink:href="#glyph-0-1" x="38.471428" y="18.126"/>
</g>
<g fill="rgb(13.723755%, 23.922729%, 30.195618%)" fill-opacity="1">
<use xlink:href="#glyph-0-2" x="43.616" y="18.126"/>
<use xlink:href="#glyph-0-3" x="47.32118" y="18.126"/>
<use xlink:href="#glyph-0-4" x="51.147006" y="18.126"/>
</g>
<g fill="rgb(13.723755%, 23.922729%, 30.195618%)" fill-opacity="1">
<use xlink:href="#glyph-0-5" x="56.90876" y="18.126"/>
<use xlink:href="#glyph-0-4" x="59.439552" y="18.126"/>
<use xlink:href="#glyph-0-6" x="62.73258" y="18.126"/>
<use xlink:href="#glyph-0-4" x="64.996973" y="18.126"/>
<use xlink:href="#glyph-0-5" x="68.290002" y="18.126"/>
<use xlink:href="#glyph-0-4" x="70.820794" y="18.126"/>
<use xlink:href="#glyph-0-3" x="74.113822" y="18.126"/>
<use xlink:href="#glyph-0-7" x="77.939649" y="18.126"/>
<use xlink:href="#glyph-0-4" x="81.232677" y="18.126"/>
</g>
<g fill="rgb(13.723755%, 23.922729%, 30.195618%)" fill-opacity="1">
<use xlink:href="#glyph-0-8" x="87.001404" y="18.126"/>
</g>
<g fill="rgb(13.723755%, 23.922729%, 30.195618%)" fill-opacity="1">
<use xlink:href="#glyph-0-2" x="91.029471" y="18.126"/>
<use xlink:href="#glyph-0-9" x="94.734651" y="18.126"/>
<use xlink:href="#glyph-0-3" x="96.502509" y="18.126"/>
<use xlink:href="#glyph-0-1" x="100.328336" y="18.126"/>
</g>
<g fill="rgb(13.723755%, 23.922729%, 30.195618%)" fill-opacity="1">
<use xlink:href="#glyph-1-0" x="105.474" y="18.126"/>
</g>
<g fill="rgb(13.723755%, 23.922729%, 30.195618%)" fill-opacity="1">
<use xlink:href="#glyph-2-0" x="109.174" y="19.183"/>
</g>
<g fill="rgb(13.723755%, 23.922729%, 30.195618%)" fill-opacity="1">
<use xlink:href="#glyph-0-10" x="113.529" y="18.126"/>
</g>
<g fill="rgb(13.723755%, 23.922729%, 30.195618%)" fill-opacity="1">
<use xlink:href="#glyph-0-2" x="118.055694" y="18.126"/>
<use xlink:href="#glyph-0-3" x="121.760874" y="18.126"/>
<use xlink:href="#glyph-0-4" x="125.5867" y="18.126"/>
</g>
<g fill="rgb(13.723755%, 23.922729%, 30.195618%)" fill-opacity="1">
<use xlink:href="#glyph-0-9" x="131.348454" y="18.126"/>
<use xlink:href="#glyph-0-3" x="133.116312" y="18.126"/>
<use xlink:href="#glyph-0-1" x="136.942139" y="18.126"/>
<use xlink:href="#glyph-0-4" x="139.617986" y="18.126"/>
<use xlink:href="#glyph-0-5" x="142.911014" y="18.126"/>
<use xlink:href="#glyph-0-8" x="145.441806" y="18.126"/>
</g>
<g fill="rgb(13.723755%, 23.922729%, 30.195618%)" fill-opacity="1">
<use xlink:href="#glyph-0-2" x="149.476847" y="18.126"/>
<use xlink:href="#glyph-0-11" x="153.182027" y="18.126"/>
<use xlink:href="#glyph-0-0" x="154.949885" y="18.126"/>
<use xlink:href="#glyph-0-1" x="158.509313" y="18.126"/>
<use xlink:href="#glyph-0-9" x="161.18516" y="18.126"/>
<use xlink:href="#glyph-0-2" x="162.953018" y="18.126"/>
<use xlink:href="#glyph-0-3" x="166.658198" y="18.126"/>
</g>
<g fill="rgb(13.723755%, 23.922729%, 30.195618%)" fill-opacity="1">
<use xlink:href="#glyph-0-8" x="172.95275" y="18.126"/>
</g>
<g fill="rgb(13.723755%, 23.922729%, 30.195618%)" fill-opacity="1">
<use xlink:href="#glyph-0-4" x="176.980817" y="18.126"/>
</g>
<g fill="rgb(13.723755%, 23.922729%, 30.195618%)" fill-opacity="1">
<use xlink:href="#glyph-0-5" x="180.280819" y="18.126"/>
</g>
<g fill="rgb(13.723755%, 23.922729%, 30.195618%)" fill-opacity="1">
<use xlink:href="#glyph-0-12" x="185.280336" y="18.126"/>
<use xlink:href="#glyph-0-4" x="189.106163" y="18.126"/>
<use xlink:href="#glyph-0-0" x="192.399191" y="18.126"/>
<use xlink:href="#glyph-0-13" x="195.958619" y="18.126"/>
</g>
<g fill="rgb(13.723755%, 23.922729%, 30.195618%)" fill-opacity="1">
<use xlink:href="#glyph-0-0" x="202.253171" y="18.126"/>
<use xlink:href="#glyph-0-3" x="205.812598" y="18.126"/>
<use xlink:href="#glyph-0-13" x="209.638425" y="18.126"/>
</g>
<g fill="rgb(13.723755%, 23.922729%, 30.195618%)" fill-opacity="1">
<use xlink:href="#glyph-0-8" x="215.932977" y="18.126"/>
</g>
<g fill="rgb(13.723755%, 23.922729%, 30.195618%)" fill-opacity="1">
<use xlink:href="#glyph-0-4" x="219.968017" y="18.126"/>
<use xlink:href="#glyph-0-5" x="223.261046" y="18.126"/>
</g>
<g fill="rgb(13.723755%, 23.922729%, 30.195618%)" fill-opacity="1">
<use xlink:href="#glyph-0-7" x="228.260563" y="18.126"/>
<use xlink:href="#glyph-0-12" x="231.553591" y="18.126"/>
<use xlink:href="#glyph-0-0" x="235.379418" y="18.126"/>
<use xlink:href="#glyph-0-3" x="238.938845" y="18.126"/>
<use xlink:href="#glyph-0-3" x="242.764672" y="18.126"/>
<use xlink:href="#glyph-0-4" x="246.590499" y="18.126"/>
<use xlink:href="#glyph-0-11" x="249.883527" y="18.126"/>
</g>
<g fill="rgb(13.723755%, 23.922729%, 30.195618%)" fill-opacity="1">
<use xlink:href="#glyph-0-12" x="38.206" y="38.646"/>
<use xlink:href="#glyph-0-4" x="42.031827" y="38.646"/>
<use xlink:href="#glyph-0-0" x="45.324855" y="38.646"/>
<use xlink:href="#glyph-0-13" x="48.884283" y="38.646"/>
</g>
<g fill="rgb(13.723755%, 23.922729%, 30.195618%)" fill-opacity="1">
<use xlink:href="#glyph-1-1" x="55.181" y="38.646"/>
</g>
<g fill="rgb(13.723755%, 23.922729%, 30.195618%)" fill-opacity="1">
<use xlink:href="#glyph-3-0" x="62.113" y="38.646"/>
</g>
<g fill="rgb(13.723755%, 23.922729%, 30.195618%)" fill-opacity="1">
<use xlink:href="#glyph-3-1" x="70.495508" y="38.646"/>
</g>
<path fill-rule="nonzero" fill="rgb(99.943542%, 92.971802%, 88.468933%)" fill-opacity="1" stroke-width="0.79701" stroke-linecap="butt" stroke-linejoin="miter" stroke="rgb(39.605713%, 46.743774%, 51.13678%)" stroke-opacity="1" stroke-miterlimit="10" d="M 25.655062 114.23625 L 58.252719 114.23625 L 58.252719 126.708906 L 25.655062 126.708906 Z M 25.655062 114.23625 " transform="matrix(1, 0, 0, -1, 14.384, 173.705)"/>
<g fill="rgb(13.723755%, 23.922729%, 30.195618%)" fill-opacity="1">
<use xlink:href="#glyph-3-2" x="50.926" y="55.156"/>
</g>
<g fill="rgb(13.723755%, 23.922729%, 30.195618%)" fill-opacity="1">
<use xlink:href="#glyph-1-2" x="50.439" y="55.156"/>
</g>
<g fill="rgb(13.723755%, 23.922729%, 30.195618%)" fill-opacity="1">
<use xlink:href="#glyph-4-0" x="54.956" y="56.152"/>
<use xlink:href="#glyph-4-0" x="58.346273" y="56.152"/>
</g>
<g fill="rgb(37.255859%, 41.96167%, 45.881653%)" fill-opacity="1">
<use xlink:href="#glyph-0-8" x="18.555" y="54.976"/>
<use xlink:href="#glyph-0-14" x="22.380827" y="54.976"/>
<use xlink:href="#glyph-0-11" x="26.206653" y="54.976"/>
<use xlink:href="#glyph-0-15" x="27.974512" y="54.976"/>
<use xlink:href="#glyph-0-4" x="30.81494" y="54.976"/>
</g>
<path fill-rule="nonzero" fill="rgb(99.943542%, 92.971802%, 88.468933%)" fill-opacity="1" stroke-width="0.79701" stroke-linecap="butt" stroke-linejoin="miter" stroke="rgb(39.605713%, 46.743774%, 51.13678%)" stroke-opacity="1" stroke-miterlimit="10" d="M 25.655062 97.228438 L 58.252719 97.228438 L 58.252719 109.701094 L 25.655062 109.701094 Z M 25.655062 97.228438 " transform="matrix(1, 0, 0, -1, 14.384, 173.705)"/>
<g fill="rgb(13.723755%, 23.922729%, 30.195618%)" fill-opacity="1">
<use xlink:href="#glyph-3-2" x="50.926" y="72.164"/>
</g>
<g fill="rgb(13.723755%, 23.922729%, 30.195618%)" fill-opacity="1">
<use xlink:href="#glyph-1-2" x="50.439" y="72.164"/>
</g>
<g fill="rgb(13.723755%, 23.922729%, 30.195618%)" fill-opacity="1">
<use xlink:href="#glyph-4-0" x="54.956" y="73.16"/>
<use xlink:href="#glyph-4-1" x="58.346273" y="73.16"/>
</g>
<g fill="rgb(37.255859%, 41.96167%, 45.881653%)" fill-opacity="1">
<use xlink:href="#glyph-0-1" x="16.371" y="71.555"/>
<use xlink:href="#glyph-0-4" x="19.046847" y="71.555"/>
<use xlink:href="#glyph-0-16" x="22.339875" y="71.555"/>
<use xlink:href="#glyph-0-8" x="28.224368" y="71.555"/>
<use xlink:href="#glyph-0-17" x="32.050195" y="71.555"/>
</g>
<path fill-rule="nonzero" fill="rgb(99.943542%, 92.971802%, 88.468933%)" fill-opacity="1" stroke-width="0.79701" stroke-linecap="butt" stroke-linejoin="miter" stroke="rgb(39.605713%, 46.743774%, 51.13678%)" stroke-opacity="1" stroke-miterlimit="10" d="M 25.655062 80.220625 L 58.252719 80.220625 L 58.252719 92.693281 L 25.655062 92.693281 Z M 25.655062 80.220625 " transform="matrix(1, 0, 0, -1, 14.384, 173.705)"/>
<g fill="rgb(13.723755%, 23.922729%, 30.195618%)" fill-opacity="1">
<use xlink:href="#glyph-3-2" x="50.926" y="89.172"/>
</g>
<g fill="rgb(13.723755%, 23.922729%, 30.195618%)" fill-opacity="1">
<use xlink:href="#glyph-1-2" x="50.439" y="89.172"/>
</g>
<g fill="rgb(13.723755%, 23.922729%, 30.195618%)" fill-opacity="1">
<use xlink:href="#glyph-4-0" x="54.956" y="90.168"/>
<use xlink:href="#glyph-4-2" x="58.346273" y="90.168"/>
</g>
<g fill="rgb(37.255859%, 41.96167%, 45.881653%)" fill-opacity="1">
<use xlink:href="#glyph-0-11" x="13.283" y="89.67"/>
<use xlink:href="#glyph-0-0" x="15.050858" y="89.67"/>
<use xlink:href="#glyph-0-7" x="18.610286" y="89.67"/>
<use xlink:href="#glyph-0-1" x="21.903314" y="89.67"/>
<use xlink:href="#glyph-0-0" x="24.579161" y="89.67"/>
<use xlink:href="#glyph-0-1" x="28.138589" y="89.67"/>
<use xlink:href="#glyph-0-4" x="30.814436" y="89.67"/>
</g>
<g fill="rgb(13.723755%, 23.922729%, 30.195618%)" fill-opacity="1">
<use xlink:href="#glyph-0-12" x="141.671" y="38.646"/>
<use xlink:href="#glyph-0-4" x="145.496827" y="38.646"/>
<use xlink:href="#glyph-0-0" x="148.789855" y="38.646"/>
<use xlink:href="#glyph-0-13" x="152.349283" y="38.646"/>
</g>
<g fill="rgb(13.723755%, 23.922729%, 30.195618%)" fill-opacity="1">
<use xlink:href="#glyph-1-1" x="158.645" y="38.646"/>
</g>
<g fill="rgb(13.723755%, 23.922729%, 30.195618%)" fill-opacity="1">
<use xlink:href="#glyph-3-0" x="165.577" y="38.646"/>
</g>
<g fill="rgb(13.723755%, 23.922729%, 30.195618%)" fill-opacity="1">
<use xlink:href="#glyph-3-3" x="173.959508" y="38.646"/>
</g>
<path fill-rule="nonzero" fill="rgb(99.943542%, 92.971802%, 88.468933%)" fill-opacity="1" stroke-width="0.79701" stroke-linecap="butt" stroke-linejoin="miter" stroke="rgb(39.605713%, 46.743774%, 51.13678%)" stroke-opacity="1" stroke-miterlimit="10" d="M 129.119906 114.23625 L 161.717562 114.23625 L 161.717562 126.708906 L 129.119906 126.708906 Z M 129.119906 114.23625 " transform="matrix(1, 0, 0, -1, 14.384, 173.705)"/>
<g fill="rgb(13.723755%, 23.922729%, 30.195618%)" fill-opacity="1">
<use xlink:href="#glyph-3-2" x="154.391" y="55.156"/>
</g>
<g fill="rgb(13.723755%, 23.922729%, 30.195618%)" fill-opacity="1">
<use xlink:href="#glyph-1-2" x="153.903" y="55.156"/>
</g>
<g fill="rgb(13.723755%, 23.922729%, 30.195618%)" fill-opacity="1">
<use xlink:href="#glyph-4-1" x="158.421" y="56.152"/>
<use xlink:href="#glyph-4-0" x="161.811273" y="56.152"/>
</g>
<g fill="rgb(37.255859%, 41.96167%, 45.881653%)" fill-opacity="1">
<use xlink:href="#glyph-0-8" x="122.02" y="54.976"/>
<use xlink:href="#glyph-0-14" x="125.845827" y="54.976"/>
<use xlink:href="#glyph-0-11" x="129.671653" y="54.976"/>
<use xlink:href="#glyph-0-15" x="131.439512" y="54.976"/>
<use xlink:href="#glyph-0-4" x="134.27994" y="54.976"/>
</g>
<path fill-rule="nonzero" fill="rgb(99.943542%, 92.971802%, 88.468933%)" fill-opacity="1" stroke-width="0.79701" stroke-linecap="butt" stroke-linejoin="miter" stroke="rgb(39.605713%, 46.743774%, 51.13678%)" stroke-opacity="1" stroke-miterlimit="10" d="M 129.119906 97.228438 L 161.717562 97.228438 L 161.717562 109.701094 L 129.119906 109.701094 Z M 129.119906 97.228438 " transform="matrix(1, 0, 0, -1, 14.384, 173.705)"/>
<g fill="rgb(13.723755%, 23.922729%, 30.195618%)" fill-opacity="1">
<use xlink:href="#glyph-3-2" x="154.391" y="72.164"/>
</g>
<g fill="rgb(13.723755%, 23.922729%, 30.195618%)" fill-opacity="1">
<use xlink:href="#glyph-1-2" x="153.903" y="72.164"/>
</g>
<g fill="rgb(13.723755%, 23.922729%, 30.195618%)" fill-opacity="1">
<use xlink:href="#glyph-4-1" x="158.421" y="73.16"/>
<use xlink:href="#glyph-4-1" x="161.811273" y="73.16"/>
</g>
<g fill="rgb(37.255859%, 41.96167%, 45.881653%)" fill-opacity="1">
<use xlink:href="#glyph-0-1" x="119.835" y="71.555"/>
<use xlink:href="#glyph-0-4" x="122.510847" y="71.555"/>
<use xlink:href="#glyph-0-16" x="125.803875" y="71.555"/>
<use xlink:href="#glyph-0-8" x="131.688368" y="71.555"/>
<use xlink:href="#glyph-0-17" x="135.514195" y="71.555"/>
</g>
<path fill-rule="nonzero" fill="rgb(99.943542%, 92.971802%, 88.468933%)" fill-opacity="1" stroke-width="0.79701" stroke-linecap="butt" stroke-linejoin="miter" stroke="rgb(39.605713%, 46.743774%, 51.13678%)" stroke-opacity="1" stroke-miterlimit="10" d="M 129.119906 80.220625 L 161.717562 80.220625 L 161.717562 92.693281 L 129.119906 92.693281 Z M 129.119906 80.220625 " transform="matrix(1, 0, 0, -1, 14.384, 173.705)"/>
<g fill="rgb(13.723755%, 23.922729%, 30.195618%)" fill-opacity="1">
<use xlink:href="#glyph-3-2" x="154.391" y="89.172"/>
</g>
<g fill="rgb(13.723755%, 23.922729%, 30.195618%)" fill-opacity="1">
<use xlink:href="#glyph-1-2" x="153.903" y="89.172"/>
</g>
<g fill="rgb(13.723755%, 23.922729%, 30.195618%)" fill-opacity="1">
<use xlink:href="#glyph-4-1" x="158.421" y="90.168"/>
<use xlink:href="#glyph-4-2" x="161.811273" y="90.168"/>
</g>
<g fill="rgb(37.255859%, 41.96167%, 45.881653%)" fill-opacity="1">
<use xlink:href="#glyph-0-11" x="116.748" y="89.67"/>
<use xlink:href="#glyph-0-0" x="118.515858" y="89.67"/>
<use xlink:href="#glyph-0-7" x="122.075286" y="89.67"/>
<use xlink:href="#glyph-0-1" x="125.368314" y="89.67"/>
<use xlink:href="#glyph-0-0" x="128.044161" y="89.67"/>
<use xlink:href="#glyph-0-1" x="131.603589" y="89.67"/>
<use xlink:href="#glyph-0-4" x="134.279436" y="89.67"/>
</g>
<path fill="none" stroke-width="0.79701" stroke-linecap="butt" stroke-linejoin="miter" stroke="rgb(48.234558%, 54.351807%, 58.117676%)" stroke-opacity="1" stroke-miterlimit="10" d="M 17.573031 77.955 C 18.323031 76.458906 20.065219 75.462813 22.557406 75.462813 L 89.698031 75.462813 C 92.186312 75.462813 93.932406 74.466719 94.6785 72.970625 C 95.424594 74.466719 97.170687 75.462813 99.658969 75.462813 L 166.799594 75.462813 C 169.291781 75.462813 171.033969 76.458906 171.780062 77.955 " transform="matrix(1, 0, 0, -1, 14.384, 173.705)"/>
<g fill="rgb(13.723755%, 23.922729%, 30.195618%)" fill-opacity="1">
<use xlink:href="#glyph-1-3" x="24.113" y="110.292"/>
</g>
<g fill="rgb(13.723755%, 23.922729%, 30.195618%)" fill-opacity="1">
<use xlink:href="#glyph-5-0" x="32.986" y="110.292"/>
</g>
<g fill="rgb(13.723755%, 23.922729%, 30.195618%)" fill-opacity="1">
<use xlink:href="#glyph-1-4" x="41.026" y="110.292"/>
</g>
<g fill="rgb(13.723755%, 23.922729%, 30.195618%)" fill-opacity="1">
<use xlink:href="#glyph-0-3" x="50.225" y="110.292"/>
<use xlink:href="#glyph-0-14" x="54.050827" y="110.292"/>
<use xlink:href="#glyph-0-16" x="57.876653" y="110.292"/>
<use xlink:href="#glyph-0-18" x="63.761146" y="110.292"/>
</g>
<g fill="rgb(13.723755%, 23.922729%, 30.195618%)" fill-opacity="1">
<use xlink:href="#glyph-0-4" x="67.796186" y="110.292"/>
<use xlink:href="#glyph-0-5" x="71.089215" y="110.292"/>
<use xlink:href="#glyph-0-15" x="73.620007" y="110.292"/>
<use xlink:href="#glyph-0-10" x="76.460436" y="110.292"/>
</g>
<g fill="rgb(13.723755%, 23.922729%, 30.195618%)" fill-opacity="1">
<use xlink:href="#glyph-0-4" x="80.987129" y="110.292"/>
<use xlink:href="#glyph-0-0" x="84.280158" y="110.292"/>
<use xlink:href="#glyph-0-7" x="87.839585" y="110.292"/>
<use xlink:href="#glyph-0-12" x="91.132613" y="110.292"/>
</g>
<g fill="rgb(13.723755%, 23.922729%, 30.195618%)" fill-opacity="1">
<use xlink:href="#glyph-0-0" x="97.427165" y="110.292"/>
<use xlink:href="#glyph-0-3" x="100.986593" y="110.292"/>
</g>
<g fill="rgb(13.723755%, 23.922729%, 30.195618%)" fill-opacity="1">
<use xlink:href="#glyph-0-9" x="107.281145" y="110.292"/>
<use xlink:href="#glyph-0-3" x="109.049003" y="110.292"/>
<use xlink:href="#glyph-0-1" x="112.87483" y="110.292"/>
<use xlink:href="#glyph-0-4" x="115.550677" y="110.292"/>
<use xlink:href="#glyph-0-5" x="118.843705" y="110.292"/>
<use xlink:href="#glyph-0-8" x="121.374497" y="110.292"/>
</g>
<g fill="rgb(13.723755%, 23.922729%, 30.195618%)" fill-opacity="1">
<use xlink:href="#glyph-0-2" x="125.409538" y="110.292"/>
<use xlink:href="#glyph-0-11" x="129.114718" y="110.292"/>
<use xlink:href="#glyph-0-0" x="130.882576" y="110.292"/>
<use xlink:href="#glyph-0-1" x="134.442004" y="110.292"/>
<use xlink:href="#glyph-0-9" x="137.117851" y="110.292"/>
<use xlink:href="#glyph-0-2" x="138.885709" y="110.292"/>
<use xlink:href="#glyph-0-3" x="142.590889" y="110.292"/>
</g>
<g fill="rgb(13.723755%, 23.922729%, 30.195618%)" fill-opacity="1">
<use xlink:href="#glyph-0-2" x="148.885441" y="110.292"/>
<use xlink:href="#glyph-0-6" x="152.590621" y="110.292"/>
</g>
<g fill="rgb(13.723755%, 23.922729%, 30.195618%)" fill-opacity="1">
<use xlink:href="#glyph-0-2" x="157.323739" y="110.292"/>
<use xlink:href="#glyph-0-3" x="161.028919" y="110.292"/>
<use xlink:href="#glyph-0-4" x="164.854745" y="110.292"/>
</g>
<g fill="rgb(13.723755%, 23.922729%, 30.195618%)" fill-opacity="1">
<use xlink:href="#glyph-0-7" x="170.616499" y="110.292"/>
<use xlink:href="#glyph-0-12" x="173.909527" y="110.292"/>
<use xlink:href="#glyph-0-0" x="177.735354" y="110.292"/>
<use xlink:href="#glyph-0-3" x="181.294781" y="110.292"/>
<use xlink:href="#glyph-0-3" x="185.120608" y="110.292"/>
<use xlink:href="#glyph-0-4" x="188.946435" y="110.292"/>
<use xlink:href="#glyph-0-11" x="192.239463" y="110.292"/>
</g>
<path fill="none" stroke-width="0.99628" stroke-linecap="butt" stroke-linejoin="miter" stroke="rgb(0%, 0%, 0%)" stroke-opacity="1" stroke-miterlimit="10" d="M 185.670687 103.466719 L 208.166781 103.466719 " transform="matrix(1, 0, 0, -1, 14.384, 173.705)"/>
<path fill-rule="nonzero" fill="rgb(0%, 0%, 0%)" fill-opacity="1" stroke-width="0.8406" stroke-linecap="butt" stroke-linejoin="miter" stroke="rgb(0%, 0%, 0%)" stroke-opacity="1" stroke-miterlimit="10" d="M 3.784854 0.00104875 L 1.359072 0.922924 L 2.175479 0.00104875 L 1.359072 -0.924732 Z M 3.784854 0.00104875 " transform="matrix(1, 0, 0, -1, 220.58624, 70.23933)"/>
<g fill="rgb(37.255859%, 41.96167%, 45.881653%)" fill-opacity="1">
<use xlink:href="#glyph-1-5" x="209.722" y="63.036"/>
</g>
<path fill-rule="nonzero" fill="rgb(91.372681%, 92.391968%, 93.017578%)" fill-opacity="1" stroke-width="0.79701" stroke-linecap="butt" stroke-linejoin="miter" stroke="rgb(39.605713%, 46.743774%, 51.13678%)" stroke-opacity="1" stroke-miterlimit="10" d="M 223.373812 117.072188 L 235.846469 117.072188 L 235.846469 129.544844 L 223.373812 129.544844 Z M 223.373812 117.072188 " transform="matrix(1, 0, 0, -1, 14.384, 173.705)"/>
<path fill-rule="nonzero" fill="rgb(91.372681%, 92.391968%, 93.017578%)" fill-opacity="1" stroke-width="0.79701" stroke-linecap="butt" stroke-linejoin="miter" stroke="rgb(39.605713%, 46.743774%, 51.13678%)" stroke-opacity="1" stroke-miterlimit="10" d="M 223.373812 102.900313 L 235.846469 102.900313 L 235.846469 115.372969 L 223.373812 115.372969 Z M 223.373812 102.900313 " transform="matrix(1, 0, 0, -1, 14.384, 173.705)"/>
<path fill-rule="nonzero" fill="rgb(91.372681%, 92.391968%, 93.017578%)" fill-opacity="1" stroke-width="0.79701" stroke-linecap="butt" stroke-linejoin="miter" stroke="rgb(39.605713%, 46.743774%, 51.13678%)" stroke-opacity="1" stroke-miterlimit="10" d="M 223.373812 88.724531 L 235.846469 88.724531 L 235.846469 101.197188 L 223.373812 101.197188 Z M 223.373812 88.724531 " transform="matrix(1, 0, 0, -1, 14.384, 173.705)"/>
<path fill-rule="nonzero" fill="rgb(91.372681%, 92.391968%, 93.017578%)" fill-opacity="1" stroke-width="0.79701" stroke-linecap="butt" stroke-linejoin="miter" stroke="rgb(39.605713%, 46.743774%, 51.13678%)" stroke-opacity="1" stroke-miterlimit="10" d="M 223.373812 74.552656 L 235.846469 74.552656 L 235.846469 87.025313 L 223.373812 87.025313 Z M 223.373812 74.552656 " transform="matrix(1, 0, 0, -1, 14.384, 173.705)"/>
<path fill-rule="nonzero" fill="rgb(91.372681%, 92.391968%, 93.017578%)" fill-opacity="1" stroke-width="0.79701" stroke-linecap="butt" stroke-linejoin="miter" stroke="rgb(39.605713%, 46.743774%, 51.13678%)" stroke-opacity="1" stroke-miterlimit="10" d="M 223.373812 60.380781 L 235.846469 60.380781 L 235.846469 72.853438 L 223.373812 72.853438 Z M 223.373812 60.380781 " transform="matrix(1, 0, 0, -1, 14.384, 173.705)"/>
<path fill="none" stroke-width="0.79701" stroke-linecap="butt" stroke-linejoin="miter" stroke="rgb(48.234558%, 54.351807%, 58.117676%)" stroke-opacity="1" stroke-miterlimit="10" d="M 238.6785 129.544844 C 240.174594 128.79875 241.170687 127.052656 241.170687 124.564375 L 241.170687 99.943281 C 241.170687 97.451094 242.166781 95.708906 243.662875 94.962813 C 242.166781 94.216719 241.170687 92.470625 241.170687 89.982344 L 241.170687 65.36125 C 241.170687 62.869063 240.174594 61.126875 238.6785 60.380781 " transform="matrix(1, 0, 0, -1, 14.384, 173.705)"/>
<g fill="rgb(13.723755%, 23.922729%, 30.195618%)" fill-opacity="1">
<use xlink:href="#glyph-1-6" x="263.754" y="80.488"/>
</g>
<g fill="rgb(13.723755%, 23.922729%, 30.195618%)" fill-opacity="1">
<use xlink:href="#glyph-0-3" x="271.29" y="80.488"/>
<use xlink:href="#glyph-0-14" x="275.115827" y="80.488"/>
<use xlink:href="#glyph-0-16" x="278.941653" y="80.488"/>
<use xlink:href="#glyph-0-18" x="284.826146" y="80.488"/>
</g>
<g fill="rgb(13.723755%, 23.922729%, 30.195618%)" fill-opacity="1">
<use xlink:href="#glyph-0-4" x="288.854213" y="80.488"/>
</g>
<g fill="rgb(13.723755%, 23.922729%, 30.195618%)" fill-opacity="1">
<use xlink:href="#glyph-0-5" x="292.154215" y="80.488"/>
</g>
<g fill="rgb(13.723755%, 23.922729%, 30.195618%)" fill-opacity="1">
<use xlink:href="#glyph-0-15" x="294.678033" y="80.488"/>
<use xlink:href="#glyph-0-10" x="297.518462" y="80.488"/>
</g>
<g fill="rgb(13.723755%, 23.922729%, 30.195618%)" fill-opacity="1">
<use xlink:href="#glyph-0-1" x="302.052129" y="80.488"/>
<use xlink:href="#glyph-0-12" x="304.727976" y="80.488"/>
<use xlink:href="#glyph-0-4" x="308.553803" y="80.488"/>
</g>
<g fill="rgb(13.723755%, 23.922729%, 30.195618%)" fill-opacity="1">
<use xlink:href="#glyph-0-2" x="314.315556" y="80.488"/>
<use xlink:href="#glyph-0-14" x="318.020736" y="80.488"/>
<use xlink:href="#glyph-0-1" x="321.846563" y="80.488"/>
<use xlink:href="#glyph-0-8" x="324.52241" y="80.488"/>
<use xlink:href="#glyph-0-14" x="328.348237" y="80.488"/>
<use xlink:href="#glyph-0-1" x="332.174064" y="80.488"/>
</g>
<g fill="rgb(13.723755%, 23.922729%, 30.195618%)" fill-opacity="1">
<use xlink:href="#glyph-0-0" x="337.318636" y="80.488"/>
<use xlink:href="#glyph-0-1" x="340.878063" y="80.488"/>
</g>
<g fill="rgb(13.723755%, 23.922729%, 30.195618%)" fill-opacity="1">
<use xlink:href="#glyph-1-0" x="346.024" y="80.488"/>
</g>
<g fill="rgb(13.723755%, 23.922729%, 30.195618%)" fill-opacity="1">
<use xlink:href="#glyph-2-0" x="349.723" y="81.545"/>
</g>
<g fill="rgb(37.255859%, 41.96167%, 45.881653%)" fill-opacity="1">
<use xlink:href="#glyph-0-4" x="190.286" y="132.462"/>
<use xlink:href="#glyph-0-19" x="193.579028" y="132.462"/>
<use xlink:href="#glyph-0-4" x="196.993401" y="132.462"/>
<use xlink:href="#glyph-0-5" x="200.286429" y="132.462"/>
<use xlink:href="#glyph-0-20" x="202.817221" y="132.462"/>
</g>
<g fill="rgb(37.255859%, 41.96167%, 45.881653%)" fill-opacity="1">
<use xlink:href="#glyph-0-4" x="208.700319" y="132.462"/>
<use xlink:href="#glyph-0-3" x="211.993347" y="132.462"/>
<use xlink:href="#glyph-0-1" x="215.819174" y="132.462"/>
<use xlink:href="#glyph-0-5" x="218.495021" y="132.462"/>
<use xlink:href="#glyph-0-20" x="221.025813" y="132.462"/>
</g>
<g fill="rgb(37.255859%, 41.96167%, 45.881653%)" fill-opacity="1">
<use xlink:href="#glyph-0-12" x="226.908911" y="132.462"/>
<use xlink:href="#glyph-0-4" x="230.734737" y="132.462"/>
<use xlink:href="#glyph-0-5" x="234.027766" y="132.462"/>
<use xlink:href="#glyph-0-4" x="236.558558" y="132.462"/>
</g>
<g fill="rgb(37.255859%, 41.96167%, 45.881653%)" fill-opacity="1">
<use xlink:href="#glyph-0-9" x="242.327285" y="132.462"/>
<use xlink:href="#glyph-0-15" x="244.095143" y="132.462"/>
</g>
<g fill="rgb(37.255859%, 41.96167%, 45.881653%)" fill-opacity="1">
<use xlink:href="#glyph-0-0" x="249.404297" y="132.462"/>
</g>
<g fill="rgb(37.255859%, 41.96167%, 45.881653%)" fill-opacity="1">
<use xlink:href="#glyph-0-21" x="255.43245" y="132.462"/>
</g>
<g fill="rgb(37.255859%, 41.96167%, 45.881653%)" fill-opacity="1">
<use xlink:href="#glyph-0-4" x="260.284123" y="132.462"/>
<use xlink:href="#glyph-0-9" x="263.577151" y="132.462"/>
<use xlink:href="#glyph-0-22" x="265.345009" y="132.462"/>
<use xlink:href="#glyph-0-12" x="269.050189" y="132.462"/>
<use xlink:href="#glyph-0-1" x="272.876016" y="132.462"/>
<use xlink:href="#glyph-0-4" x="275.551863" y="132.462"/>
<use xlink:href="#glyph-0-13" x="278.844891" y="132.462"/>
</g>
<g fill="rgb(37.255859%, 41.96167%, 45.881653%)" fill-opacity="1">
<use xlink:href="#glyph-0-15" x="285.146417" y="132.462"/>
<use xlink:href="#glyph-0-14" x="287.986846" y="132.462"/>
<use xlink:href="#glyph-0-16" x="291.812673" y="132.462"/>
</g>
<g fill="rgb(37.255859%, 41.96167%, 45.881653%)" fill-opacity="1">
<use xlink:href="#glyph-0-2" x="213.649" y="140.432"/>
<use xlink:href="#glyph-0-6" x="217.35418" y="140.432"/>
</g>
<g fill="rgb(37.255859%, 41.96167%, 45.881653%)" fill-opacity="1">
<use xlink:href="#glyph-0-4" x="222.087298" y="140.432"/>
<use xlink:href="#glyph-0-19" x="225.380326" y="140.432"/>
<use xlink:href="#glyph-0-4" x="228.794699" y="140.432"/>
<use xlink:href="#glyph-0-5" x="232.087727" y="140.432"/>
<use xlink:href="#glyph-0-20" x="234.618519" y="140.432"/>
</g>
<g fill="rgb(37.255859%, 41.96167%, 45.881653%)" fill-opacity="1">
<use xlink:href="#glyph-0-4" x="240.501617" y="140.432"/>
<use xlink:href="#glyph-0-3" x="243.794645" y="140.432"/>
<use xlink:href="#glyph-0-1" x="247.620472" y="140.432"/>
<use xlink:href="#glyph-0-5" x="250.296319" y="140.432"/>
<use xlink:href="#glyph-0-20" x="252.827111" y="140.432"/>
</g>
<g fill="rgb(37.255859%, 41.96167%, 45.881653%)" fill-opacity="1">
<use xlink:href="#glyph-0-1" x="258.710209" y="140.432"/>
<use xlink:href="#glyph-0-12" x="261.386056" y="140.432"/>
<use xlink:href="#glyph-0-4" x="265.211882" y="140.432"/>
<use xlink:href="#glyph-0-5" x="268.504911" y="140.432"/>
<use xlink:href="#glyph-0-4" x="271.035703" y="140.432"/>
</g>
</svg>
