<?xml version="1.0" encoding="UTF-8"?>
<svg xmlns="http://www.w3.org/2000/svg" xmlns:xlink="http://www.w3.org/1999/xlink" width="297.861pt" height="220.976pt" viewBox="0 0 297.861 220.976">
<defs>
<g>
<g id="glyph-0-0">
<path d="M 1.3125 -2.65625 L 2.34375 -2.65625 L 2.34375 -3.09375 L 1.3125 -3.09375 L 1.3125 -3.984375 L 0.78125 -3.984375 L 0.78125 -3.09375 L 0.140625 -3.09375 L 0.140625 -2.65625 L 0.75 -2.65625 L 0.75 -0.890625 C 0.75 -0.421875 0.875 0.0625 1.375 0.0625 C 1.875 0.0625 2.265625 -0.09375 2.46875 -0.1875 L 2.34375 -0.640625 C 2.125 -0.46875 1.875 -0.40625 1.671875 -0.40625 C 1.390625 -0.40625 1.3125 -0.703125 1.3125 -1.015625 Z M 1.3125 -2.65625 "/>
</g>
<g id="glyph-0-1">
<path d="M 3.234375 -2.0625 C 3.234375 -2.609375 3.078125 -3.15625 2.21875 -3.15625 C 1.625 -3.15625 1.296875 -2.8125 1.15625 -2.671875 L 1.15625 -4.84375 L 0.578125 -4.84375 L 0.578125 0 L 1.1875 0 L 1.1875 -1.6875 C 1.1875 -2.15625 1.375 -2.703125 1.921875 -2.703125 C 2.640625 -2.703125 2.640625 -2.21875 2.640625 -2.015625 L 2.640625 0 L 3.234375 0 Z M 3.234375 -2.0625 "/>
</g>
<g id="glyph-0-2">
<path d="M 1.171875 -1.484375 C 1.171875 -2.234375 1.8125 -2.640625 2.421875 -2.640625 L 2.421875 -3.15625 C 1.828125 -3.15625 1.40625 -2.875 1.125 -2.5 L 1.125 -3.140625 L 0.59375 -3.140625 L 0.59375 0 L 1.171875 0 Z M 1.171875 -1.484375 "/>
</g>
<g id="glyph-0-3">
<path d="M 3 -0.765625 C 2.609375 -0.484375 2.171875 -0.390625 1.875 -0.390625 C 1.265625 -0.390625 0.796875 -0.890625 0.78125 -1.53125 L 3.0625 -1.53125 C 3.0625 -1.84375 3.03125 -2.3125 2.765625 -2.703125 C 2.515625 -3.0625 2.09375 -3.203125 1.75 -3.203125 C 0.90625 -3.203125 0.25 -2.453125 0.25 -1.5625 C 0.25 -0.671875 0.9375 0.0625 1.859375 0.0625 C 2.265625 0.0625 2.6875 -0.046875 3.03125 -0.265625 Z M 0.828125 -1.9375 C 0.984375 -2.5 1.40625 -2.734375 1.75 -2.734375 C 2.0625 -2.734375 2.515625 -2.59375 2.640625 -1.9375 Z M 0.828125 -1.9375 "/>
</g>
<g id="glyph-0-4">
<path d="M 3.03125 -0.765625 C 2.6875 -0.53125 2.3125 -0.40625 1.875 -0.40625 C 1.234375 -0.40625 0.859375 -0.921875 0.859375 -1.546875 C 0.859375 -2.09375 1.140625 -2.71875 1.890625 -2.71875 C 2.375 -2.71875 2.59375 -2.625 2.953125 -2.390625 L 3.03125 -2.90625 C 2.625 -3.109375 2.4375 -3.203125 1.890625 -3.203125 C 0.84375 -3.203125 0.25 -2.359375 0.25 -1.546875 C 0.25 -0.703125 0.921875 0.0625 1.875 0.0625 C 2.359375 0.0625 2.78125 -0.078125 3.078125 -0.25 Z M 3.03125 -0.765625 "/>
</g>
<g id="glyph-0-5">
<path d="M 3.484375 -1.53125 C 3.484375 -2.453125 2.75 -3.203125 1.84375 -3.203125 C 0.9375 -3.203125 0.203125 -2.4375 0.203125 -1.53125 C 0.203125 -0.640625 0.953125 0.0625 1.84375 0.0625 C 2.75 0.0625 3.484375 -0.640625 3.484375 -1.53125 Z M 1.84375 -0.40625 C 1.296875 -0.40625 0.8125 -0.8125 0.8125 -1.609375 C 0.8125 -2.390625 1.328125 -2.734375 1.84375 -2.734375 C 2.375 -2.734375 2.875 -2.375 2.875 -1.609375 C 2.875 -0.8125 2.390625 -0.40625 1.84375 -0.40625 Z M 1.84375 -0.40625 "/>
</g>
<g id="glyph-0-6">
<path d="M 3.234375 -2.0625 C 3.234375 -2.609375 3.078125 -3.15625 2.21875 -3.15625 C 1.828125 -3.15625 1.4375 -3 1.140625 -2.640625 L 1.140625 -3.140625 L 0.578125 -3.140625 L 0.578125 0 L 1.1875 0 L 1.1875 -1.6875 C 1.1875 -2.15625 1.375 -2.703125 1.921875 -2.703125 C 2.640625 -2.703125 2.640625 -2.21875 2.640625 -2.015625 L 2.640625 0 L 3.234375 0 Z M 3.234375 -2.0625 "/>
</g>
<g id="glyph-0-7">
<path d="M 2.546875 -2.984375 C 2.0625 -3.171875 1.71875 -3.203125 1.46875 -3.203125 C 1.296875 -3.203125 0.25 -3.203125 0.25 -2.265625 C 0.25 -1.9375 0.421875 -1.765625 0.515625 -1.671875 C 0.765625 -1.4375 1.046875 -1.375 1.421875 -1.3125 C 1.75 -1.25 2.125 -1.171875 2.125 -0.84375 C 2.125 -0.40625 1.546875 -0.40625 1.453125 -0.40625 C 1 -0.40625 0.578125 -0.5625 0.3125 -0.765625 L 0.203125 -0.234375 C 0.453125 -0.125 0.875 0.0625 1.453125 0.0625 C 1.765625 0.0625 2.0625 0.015625 2.328125 -0.171875 C 2.578125 -0.359375 2.671875 -0.671875 2.671875 -0.90625 C 2.671875 -1.03125 2.65625 -1.296875 2.359375 -1.5625 C 2.109375 -1.796875 1.859375 -1.84375 1.515625 -1.90625 C 1.109375 -1.984375 0.78125 -2.046875 0.78125 -2.359375 C 0.78125 -2.75 1.296875 -2.75 1.40625 -2.75 C 1.796875 -2.75 2.109375 -2.671875 2.453125 -2.484375 Z M 2.546875 -2.984375 "/>
</g>
<g id="glyph-0-8">
<path d="M 3.234375 -3.09375 L 2.640625 -3.09375 L 2.640625 -1.078125 C 2.640625 -0.515625 2.15625 -0.34375 1.75 -0.34375 C 1.234375 -0.34375 1.1875 -0.484375 1.1875 -0.796875 L 1.1875 -3.09375 L 0.578125 -3.09375 L 0.578125 -0.765625 C 0.578125 -0.140625 0.84375 0.0625 1.34375 0.0625 C 1.625 0.0625 2.234375 0.015625 2.65625 -0.328125 L 2.65625 0 L 3.234375 0 Z M 3.234375 -3.09375 "/>
</g>
<g id="glyph-0-9">
<path d="M 1.21875 -4.78125 L 0.515625 -4.78125 L 0.515625 -4.078125 L 1.21875 -4.078125 Z M 1.171875 -3.09375 L 0.578125 -3.09375 L 0.578125 0 L 1.171875 0 Z M 1.171875 -3.09375 "/>
</g>
<g id="glyph-0-10">
<path d="M 3.296875 -3.09375 L 2.75 -3.09375 C 1.796875 -0.765625 1.75 -0.578125 1.71875 -0.40625 C 1.65625 -0.6875 1.46875 -1.171875 1.25 -1.703125 L 0.6875 -3.09375 L 0.109375 -3.09375 L 1.375 0 L 2.03125 0 Z M 3.296875 -3.09375 "/>
</g>
<g id="glyph-0-11">
<path d="M 4.953125 -3.09375 L 4.40625 -3.09375 C 4.34375 -2.90625 3.953125 -1.71875 3.734375 -1 C 3.671875 -0.796875 3.609375 -0.578125 3.59375 -0.40625 L 3.578125 -0.40625 C 3.546875 -0.703125 3.296875 -1.453125 3.28125 -1.5 L 2.765625 -3.09375 L 2.234375 -3.09375 C 2.03125 -2.5 1.515625 -0.9375 1.453125 -0.421875 C 1.390625 -0.921875 0.875 -2.453125 0.765625 -2.796875 C 0.703125 -2.96875 0.703125 -2.96875 0.671875 -3.09375 L 0.109375 -3.09375 L 1.125 0 L 1.703125 0 C 1.71875 -0.03125 1.90625 -0.578125 2.140625 -1.359375 C 2.25 -1.6875 2.453125 -2.359375 2.5 -2.671875 C 2.515625 -2.53125 2.5625 -2.375 2.609375 -2.203125 C 2.65625 -2.03125 2.703125 -1.84375 2.75 -1.671875 L 3.296875 0 L 3.9375 0 Z M 4.953125 -3.09375 "/>
</g>
<g id="glyph-0-12">
<path d="M 3.21875 -4.84375 L 2.640625 -4.84375 L 2.640625 -2.796875 C 2.1875 -3.125 1.734375 -3.15625 1.546875 -3.15625 C 0.8125 -3.15625 0.25 -2.4375 0.25 -1.546875 C 0.25 -0.65625 0.796875 0.0625 1.515625 0.0625 C 1.953125 0.0625 2.359375 -0.125 2.625 -0.359375 L 2.625 0 L 3.21875 0 Z M 2.625 -0.859375 C 2.453125 -0.578125 2.1875 -0.390625 1.84375 -0.390625 C 1.359375 -0.390625 0.859375 -0.734375 0.859375 -1.546875 C 0.859375 -2.40625 1.453125 -2.703125 1.921875 -2.703125 C 2.203125 -2.703125 2.4375 -2.578125 2.625 -2.34375 Z M 2.625 -0.859375 "/>
</g>
<g id="glyph-0-13">
<path d="M 1.34375 0 L 1.34375 -0.625 L 0.703125 -0.625 L 0.703125 0 L 0.90625 0 L 0.703125 0.890625 L 1.015625 0.890625 Z M 1.34375 0 "/>
</g>
<g id="glyph-0-14">
<path d="M 2.234375 -4.71875 L 2.078125 -4.71875 C 1.625 -4.296875 1.0625 -4.265625 0.640625 -4.265625 L 0.640625 -3.8125 C 0.90625 -3.828125 1.265625 -3.84375 1.609375 -3.984375 L 1.609375 -0.4375 L 0.6875 -0.4375 L 0.6875 0 L 3.15625 0 L 3.15625 -0.4375 L 2.234375 -0.4375 Z M 2.234375 -4.71875 "/>
</g>
<g id="glyph-0-15">
<path d="M 1.96875 -0.53125 C 1.890625 -0.53125 1.8125 -0.53125 1.71875 -0.53125 L 0.921875 -0.53125 L 2 -1.484375 C 2.125 -1.59375 2.46875 -1.859375 2.609375 -1.96875 C 2.90625 -2.25 3.328125 -2.609375 3.328125 -3.21875 C 3.328125 -4 2.734375 -4.71875 1.734375 -4.71875 C 1 -4.71875 0.546875 -4.328125 0.3125 -3.609375 L 0.640625 -3.203125 C 0.796875 -3.78125 1.03125 -4.234375 1.640625 -4.234375 C 2.234375 -4.234375 2.671875 -3.828125 2.671875 -3.203125 C 2.671875 -2.625 2.328125 -2.296875 1.921875 -1.890625 C 1.78125 -1.75 1.40625 -1.4375 1.25 -1.296875 C 1.046875 -1.125 0.578125 -0.65625 0.375 -0.484375 L 0.375 0 L 3.328125 0 L 3.328125 -0.53125 Z M 1.96875 -0.53125 "/>
</g>
<g id="glyph-0-16">
<path d="M 0.703125 -3.578125 C 0.984375 -4.125 1.484375 -4.28125 1.8125 -4.28125 C 2.234375 -4.28125 2.53125 -4.046875 2.53125 -3.65625 C 2.53125 -3.28125 2.28125 -2.828125 1.75 -2.734375 C 1.71875 -2.734375 1.6875 -2.734375 1.234375 -2.703125 L 1.234375 -2.234375 L 1.78125 -2.234375 C 2.4375 -2.234375 2.6875 -1.71875 2.6875 -1.28125 C 2.6875 -0.734375 2.34375 -0.3125 1.8125 -0.3125 C 1.3125 -0.3125 0.75 -0.546875 0.390625 -1 L 0.3125 -0.546875 C 0.703125 -0.09375 1.28125 0.140625 1.8125 0.140625 C 2.734375 0.140625 3.390625 -0.53125 3.390625 -1.265625 C 3.390625 -1.84375 2.921875 -2.296875 2.375 -2.453125 C 2.90625 -2.734375 3.171875 -3.203125 3.171875 -3.65625 C 3.171875 -4.25 2.578125 -4.71875 1.828125 -4.71875 C 1.21875 -4.71875 0.703125 -4.390625 0.40625 -3.984375 Z M 0.703125 -3.578125 "/>
</g>
<g id="glyph-0-17">
<path d="M 3.40625 -2.265625 C 3.40625 -2.59375 3.40625 -3.421875 3.078125 -3.984375 C 2.71875 -4.609375 2.1875 -4.71875 1.84375 -4.71875 C 1.53125 -4.71875 0.984375 -4.625 0.640625 -4.015625 C 0.3125 -3.46875 0.296875 -2.703125 0.296875 -2.265625 C 0.296875 -1.75 0.328125 -1.109375 0.609375 -0.578125 C 0.921875 -0.015625 1.4375 0.140625 1.84375 0.140625 C 2.546875 0.140625 2.921875 -0.265625 3.140625 -0.703125 C 3.375 -1.1875 3.40625 -1.828125 3.40625 -2.265625 Z M 1.84375 -0.3125 C 1.546875 -0.3125 1.21875 -0.484375 1.046875 -0.984375 C 0.90625 -1.40625 0.90625 -1.84375 0.90625 -2.359375 C 0.90625 -3 0.90625 -4.265625 1.84375 -4.265625 C 2.796875 -4.265625 2.796875 -3 2.796875 -2.359375 C 2.796875 -1.890625 2.796875 -1.375 2.625 -0.921875 C 2.4375 -0.421875 2.078125 -0.3125 1.84375 -0.3125 Z M 1.84375 -0.3125 "/>
</g>
<g id="glyph-0-18">
<path d="M 3.0625 -4.578125 C 2.6875 -4.71875 2.421875 -4.71875 2.28125 -4.71875 C 1.21875 -4.71875 0.3125 -3.71875 0.3125 -2.25 C 0.3125 -0.359375 1.15625 0.140625 1.859375 0.140625 C 2.421875 0.140625 2.71875 -0.125 2.9375 -0.34375 C 3.375 -0.8125 3.390625 -1.3125 3.390625 -1.546875 C 3.390625 -2.46875 2.890625 -3.21875 2.21875 -3.21875 C 1.53125 -3.21875 1.15625 -2.875 0.96875 -2.671875 C 1.046875 -3.625 1.546875 -4.28125 2.296875 -4.28125 C 2.4375 -4.28125 2.703125 -4.265625 3.0625 -4.140625 Z M 0.96875 -1.53125 C 0.96875 -1.578125 0.96875 -1.671875 0.96875 -1.71875 C 0.96875 -2.1875 1.28125 -2.765625 1.890625 -2.765625 C 2.75 -2.765625 2.75 -1.796875 2.75 -1.546875 C 2.75 -1.296875 2.75 -1 2.5625 -0.703125 C 2.390625 -0.453125 2.1875 -0.3125 1.859375 -0.3125 C 1.125 -0.3125 1 -1.21875 0.96875 -1.53125 Z M 0.96875 -1.53125 "/>
</g>
<g id="glyph-0-19">
<path d="M 0.53125 -0.171875 C 0.875 0.078125 1.1875 0.140625 1.515625 0.140625 C 2.5 0.140625 3.390625 -0.84375 3.390625 -2.328125 C 3.390625 -4.234375 2.546875 -4.71875 1.875 -4.71875 C 1.25 -4.71875 0.96875 -4.421875 0.765625 -4.21875 C 0.328125 -3.765625 0.3125 -3.296875 0.3125 -3.015625 C 0.3125 -2.125 0.796875 -1.34375 1.484375 -1.34375 C 2.265625 -1.34375 2.703125 -1.875 2.734375 -1.90625 C 2.640625 -0.796875 2.09375 -0.3125 1.515625 -0.3125 C 1.15625 -0.3125 0.9375 -0.453125 0.78125 -0.578125 Z M 2.703125 -3.03125 C 2.71875 -2.984375 2.71875 -2.90625 2.71875 -2.875 C 2.71875 -2.359375 2.40625 -1.8125 1.796875 -1.8125 C 1.53125 -1.8125 1.328125 -1.875 1.140625 -2.171875 C 0.96875 -2.4375 0.953125 -2.703125 0.953125 -3.015625 C 0.953125 -3.296875 0.953125 -3.609375 1.15625 -3.90625 C 1.3125 -4.125 1.515625 -4.28125 1.875 -4.28125 C 2.546875 -4.28125 2.6875 -3.46875 2.703125 -3.03125 Z M 2.703125 -3.03125 "/>
</g>
<g id="glyph-0-20">
<path d="M 2.765625 -1.15625 L 3.484375 -1.15625 L 3.484375 -1.625 L 2.765625 -1.625 L 2.765625 -4.578125 L 2.0625 -4.578125 L 0.203125 -1.625 L 0.203125 -1.15625 L 2.15625 -1.15625 L 2.15625 0 L 2.765625 0 Z M 0.796875 -1.625 C 1.015625 -1.953125 2.203125 -3.8125 2.203125 -4.234375 L 2.203125 -1.625 Z M 0.796875 -1.625 "/>
</g>
<g id="glyph-0-21">
<path d="M 5.296875 -2.0625 C 5.296875 -2.609375 5.140625 -3.15625 4.28125 -3.15625 C 3.6875 -3.15625 3.328125 -2.828125 3.15625 -2.59375 C 3.09375 -2.78125 2.921875 -3.15625 2.21875 -3.15625 C 1.828125 -3.15625 1.4375 -3 1.140625 -2.640625 L 1.140625 -3.140625 L 0.578125 -3.140625 L 0.578125 0 L 1.1875 0 L 1.1875 -1.6875 C 1.1875 -2.15625 1.375 -2.703125 1.921875 -2.703125 C 2.640625 -2.703125 2.640625 -2.21875 2.640625 -2.015625 L 2.640625 0 L 3.234375 0 L 3.234375 -1.6875 C 3.234375 -2.15625 3.4375 -2.703125 3.96875 -2.703125 C 4.6875 -2.703125 4.6875 -2.21875 4.6875 -2.015625 L 4.6875 0 L 5.296875 0 Z M 5.296875 -2.0625 "/>
</g>
<g id="glyph-0-22">
<path d="M 2.96875 -2 C 2.96875 -2.71875 2.421875 -3.203125 1.734375 -3.203125 C 1.296875 -3.203125 0.96875 -3.109375 0.578125 -2.90625 L 0.609375 -2.390625 C 0.84375 -2.546875 1.1875 -2.75 1.734375 -2.75 C 2.046875 -2.75 2.359375 -2.515625 2.359375 -2 L 2.359375 -1.71875 C 1.328125 -1.6875 0.3125 -1.46875 0.3125 -0.828125 C 0.3125 -0.46875 0.546875 0.0625 1.15625 0.0625 C 1.46875 0.0625 2.015625 0 2.390625 -0.265625 L 2.390625 0 L 2.96875 0 Z M 2.359375 -0.984375 C 2.359375 -0.84375 2.359375 -0.671875 2.125 -0.515625 C 1.890625 -0.390625 1.625 -0.390625 1.546875 -0.390625 C 1.15625 -0.390625 0.875 -0.5625 0.875 -0.828125 C 0.875 -1.28125 2.046875 -1.3125 2.359375 -1.328125 Z M 2.359375 -0.984375 "/>
</g>
<g id="glyph-0-23">
<path d="M 1.328125 -2.65625 L 2.125 -2.65625 L 2.125 -3.09375 L 1.296875 -3.09375 L 1.296875 -3.890625 C 1.296875 -4.375 1.734375 -4.453125 1.96875 -4.453125 C 2.125 -4.453125 2.3125 -4.421875 2.5625 -4.328125 L 2.5625 -4.84375 C 2.390625 -4.875 2.171875 -4.90625 1.984375 -4.90625 C 1.265625 -4.90625 0.734375 -4.390625 0.734375 -3.703125 L 0.734375 -3.09375 L 0.203125 -3.09375 L 0.203125 -2.65625 L 0.734375 -2.65625 L 0.734375 0 L 1.328125 0 Z M 1.328125 -2.65625 "/>
</g>
<g id="glyph-0-24">
<path d="M 1.9375 -1.59375 L 3.28125 -3.09375 L 2.671875 -3.09375 L 1.671875 -1.953125 L 0.671875 -3.09375 L 0.046875 -3.09375 L 1.4375 -1.59375 L 0 0 L 0.625 0 L 1.671875 -1.3125 L 2.78125 0 L 3.40625 0 Z M 1.9375 -1.59375 "/>
</g>
<g id="glyph-0-25">
<path d="M 1.171875 -4.84375 L 0.578125 -4.84375 L 0.578125 0 L 1.171875 0 Z M 1.171875 -4.84375 "/>
</g>
<g id="glyph-0-26">
<path d="M 1.34375 -0.625 L 0.703125 -0.625 L 0.703125 0 L 1.34375 0 Z M 1.34375 -0.625 "/>
</g>
<g id="glyph-0-27">
<path d="M 3.6875 -1.671875 L 3.6875 -2.140625 L 0 -2.140625 L 0 -1.671875 Z M 3.6875 -1.671875 "/>
</g>
<g id="glyph-0-28">
<path d="M 1.140625 -4.09375 L 3.078125 -4.09375 L 3.078125 -4.578125 L 0.578125 -4.578125 L 0.578125 -1.96875 L 1.09375 -1.96875 C 1.265625 -2.34375 1.59375 -2.515625 1.90625 -2.515625 C 2.1875 -2.515625 2.625 -2.3125 2.625 -1.421875 C 2.625 -0.515625 2.046875 -0.3125 1.6875 -0.3125 C 1.21875 -0.3125 0.78125 -0.5625 0.546875 -0.953125 L 0.28125 -0.53125 C 0.625 -0.109375 1.140625 0.140625 1.6875 0.140625 C 2.609375 0.140625 3.328125 -0.5625 3.328125 -1.421875 C 3.328125 -2.28125 2.6875 -2.96875 1.921875 -2.96875 C 1.609375 -2.96875 1.359375 -2.859375 1.140625 -2.6875 Z M 1.140625 -4.09375 "/>
</g>
<g id="glyph-0-29">
<path d="M 2.390625 -2.46875 C 2.84375 -2.609375 3.28125 -2.984375 3.28125 -3.5 C 3.28125 -4.125 2.671875 -4.71875 1.84375 -4.71875 C 1.015625 -4.71875 0.40625 -4.125 0.40625 -3.5 C 0.40625 -2.96875 0.859375 -2.609375 1.3125 -2.46875 C 0.703125 -2.28125 0.3125 -1.8125 0.3125 -1.265625 C 0.3125 -0.515625 0.96875 0.140625 1.84375 0.140625 C 2.71875 0.140625 3.390625 -0.515625 3.390625 -1.265625 C 3.390625 -1.8125 2.984375 -2.28125 2.390625 -2.46875 Z M 1.84375 -2.703125 C 1.359375 -2.703125 0.953125 -2.984375 0.953125 -3.484375 C 0.953125 -3.9375 1.265625 -4.28125 1.84375 -4.28125 C 2.421875 -4.28125 2.75 -3.9375 2.75 -3.484375 C 2.75 -3 2.359375 -2.703125 1.84375 -2.703125 Z M 1.84375 -0.3125 C 1.359375 -0.3125 0.9375 -0.625 0.9375 -1.28125 C 0.9375 -1.90625 1.34375 -2.234375 1.84375 -2.234375 C 2.34375 -2.234375 2.75 -1.890625 2.75 -1.28125 C 2.75 -0.625 2.328125 -0.3125 1.84375 -0.3125 Z M 1.84375 -0.3125 "/>
</g>
<g id="glyph-0-30">
<path d="M 3.296875 -3.09375 L 2.734375 -3.09375 C 2.171875 -1.765625 1.78125 -0.859375 1.75 -0.4375 C 1.734375 -0.640625 1.609375 -0.984375 1.484375 -1.3125 C 1.375 -1.59375 1.265625 -1.875 1.140625 -2.140625 L 0.703125 -3.09375 L 0.109375 -3.09375 L 1.546875 0 C 1.46875 0.203125 1.328125 0.515625 1.28125 0.609375 C 1.140625 0.90625 1.03125 1 0.84375 1 C 0.828125 1 0.5625 1 0.265625 0.875 L 0.3125 1.359375 C 0.375 1.375 0.625 1.421875 0.84375 1.421875 C 1.125 1.421875 1.375 1.3125 1.671875 0.640625 Z M 3.296875 -3.09375 "/>
</g>
<g id="glyph-1-0">
<path d="M 4.953125 -4.8125 C 4.953125 -4.84375 4.921875 -4.90625 4.859375 -4.90625 C 4.8125 -4.90625 4.8125 -4.890625 4.71875 -4.796875 L 4.375 -4.40625 C 4.109375 -4.78125 3.671875 -4.90625 3.25 -4.90625 C 2.265625 -4.90625 1.390625 -4.109375 1.390625 -3.296875 C 1.390625 -3.203125 1.421875 -2.921875 1.625 -2.65625 C 1.859375 -2.390625 2.125 -2.328125 2.59375 -2.203125 C 2.734375 -2.171875 3.078125 -2.09375 3.1875 -2.0625 C 3.40625 -2.015625 3.828125 -1.859375 3.828125 -1.34375 C 3.828125 -0.78125 3.234375 -0.109375 2.453125 -0.109375 C 1.828125 -0.109375 1.09375 -0.328125 1.09375 -1.09375 C 1.09375 -1.171875 1.109375 -1.328125 1.140625 -1.453125 C 1.140625 -1.484375 1.140625 -1.484375 1.140625 -1.484375 C 1.140625 -1.578125 1.0625 -1.578125 1.03125 -1.578125 C 0.9375 -1.578125 0.921875 -1.5625 0.90625 -1.4375 L 0.546875 -0.046875 C 0.53125 -0.015625 0.515625 0.015625 0.515625 0.0625 C 0.515625 0.09375 0.546875 0.140625 0.625 0.140625 C 0.65625 0.140625 0.671875 0.125 0.765625 0.046875 C 0.84375 -0.046875 1.015625 -0.265625 1.09375 -0.34375 C 1.46875 0.0625 2 0.140625 2.421875 0.140625 C 3.484375 0.140625 4.328125 -0.765625 4.328125 -1.59375 C 4.328125 -1.890625 4.203125 -2.171875 4.046875 -2.328125 C 3.8125 -2.578125 3.703125 -2.609375 2.796875 -2.828125 C 2.65625 -2.859375 2.421875 -2.90625 2.359375 -2.9375 C 2.1875 -3 1.890625 -3.171875 1.890625 -3.5625 C 1.890625 -4.125 2.515625 -4.671875 3.234375 -4.671875 C 4 -4.671875 4.359375 -4.25 4.359375 -3.59375 C 4.359375 -3.5 4.328125 -3.34375 4.328125 -3.28125 C 4.328125 -3.171875 4.40625 -3.171875 4.453125 -3.171875 C 4.546875 -3.171875 4.5625 -3.21875 4.578125 -3.328125 Z M 4.953125 -4.8125 "/>
</g>
<g id="glyph-1-1">
<path d="M 2.375 -2.15625 L 3.640625 -2.15625 C 4.8125 -2.15625 5.8125 -2.90625 5.8125 -3.671875 C 5.8125 -4.265625 5.234375 -4.765625 4.28125 -4.765625 L 1.84375 -4.765625 C 1.703125 -4.765625 1.625 -4.765625 1.625 -4.609375 C 1.625 -4.515625 1.703125 -4.515625 1.859375 -4.515625 C 1.96875 -4.515625 2 -4.515625 2.125 -4.5 C 2.265625 -4.484375 2.265625 -4.46875 2.265625 -4.390625 C 2.265625 -4.390625 2.265625 -4.34375 2.25 -4.25 L 1.328125 -0.578125 C 1.25 -0.296875 1.25 -0.25 0.703125 -0.25 C 0.578125 -0.25 0.5 -0.25 0.5 -0.09375 C 0.5 -0.09375 0.5 0 0.609375 0 C 0.8125 0 1.3125 -0.03125 1.515625 -0.03125 C 1.625 -0.03125 1.875 -0.03125 2 -0.015625 C 2.125 -0.015625 2.3125 0 2.4375 0 C 2.484375 0 2.578125 0 2.578125 -0.15625 C 2.578125 -0.25 2.5 -0.25 2.359375 -0.25 C 2.359375 -0.25 2.21875 -0.25 2.09375 -0.265625 C 1.9375 -0.28125 1.9375 -0.296875 1.9375 -0.375 C 1.9375 -0.375 1.9375 -0.421875 1.96875 -0.515625 Z M 2.875 -4.265625 C 2.9375 -4.484375 2.9375 -4.515625 3.234375 -4.515625 L 4.046875 -4.515625 C 4.703125 -4.515625 5.09375 -4.3125 5.09375 -3.8125 C 5.09375 -3.609375 5.015625 -3.046875 4.671875 -2.734375 C 4.421875 -2.515625 4.015625 -2.390625 3.515625 -2.390625 L 2.40625 -2.390625 Z M 2.875 -4.265625 "/>
</g>
<g id="glyph-2-0">
<path d="M 5.359375 -2.34375 C 5.453125 -2.34375 5.609375 -2.34375 5.609375 -2.515625 C 5.609375 -2.6875 5.453125 -2.6875 5.359375 -2.6875 L 0.75 -2.6875 C 0.65625 -2.6875 0.484375 -2.6875 0.484375 -2.515625 C 0.484375 -2.34375 0.640625 -2.34375 0.75 -2.34375 Z M 5.359375 -0.8125 C 5.453125 -0.8125 5.609375 -0.8125 5.609375 -0.96875 C 5.609375 -1.15625 5.453125 -1.15625 5.359375 -1.15625 L 0.75 -1.15625 C 0.640625 -1.15625 0.484375 -1.15625 0.484375 -0.96875 C 0.484375 -0.8125 0.65625 -0.8125 0.75 -0.8125 Z M 5.359375 -0.8125 "/>
</g>
<g id="glyph-2-1">
<path d="M 1.90625 -2.328125 C 2.453125 -2.328125 2.84375 -1.953125 2.84375 -1.203125 C 2.84375 -0.34375 2.328125 -0.078125 1.9375 -0.078125 C 1.65625 -0.078125 1.03125 -0.15625 0.75 -0.578125 C 1.078125 -0.578125 1.15625 -0.8125 1.15625 -0.96875 C 1.15625 -1.1875 0.984375 -1.34375 0.765625 -1.34375 C 0.578125 -1.34375 0.375 -1.21875 0.375 -0.9375 C 0.375 -0.28125 1.09375 0.140625 1.9375 0.140625 C 2.90625 0.140625 3.578125 -0.515625 3.578125 -1.203125 C 3.578125 -1.75 3.140625 -2.296875 2.375 -2.453125 C 3.09375 -2.71875 3.359375 -3.234375 3.359375 -3.671875 C 3.359375 -4.21875 2.734375 -4.625 1.953125 -4.625 C 1.1875 -4.625 0.59375 -4.25 0.59375 -3.6875 C 0.59375 -3.453125 0.75 -3.328125 0.953125 -3.328125 C 1.171875 -3.328125 1.3125 -3.484375 1.3125 -3.671875 C 1.3125 -3.875 1.171875 -4.03125 0.953125 -4.046875 C 1.203125 -4.34375 1.671875 -4.421875 1.9375 -4.421875 C 2.25 -4.421875 2.6875 -4.265625 2.6875 -3.671875 C 2.6875 -3.375 2.59375 -3.046875 2.40625 -2.84375 C 2.1875 -2.578125 1.984375 -2.5625 1.640625 -2.53125 C 1.46875 -2.515625 1.453125 -2.515625 1.421875 -2.515625 C 1.40625 -2.515625 1.34375 -2.5 1.34375 -2.421875 C 1.34375 -2.328125 1.40625 -2.328125 1.53125 -2.328125 Z M 1.90625 -2.328125 "/>
</g>
<g id="glyph-2-2">
<path d="M 3.59375 -2.21875 C 3.59375 -2.984375 3.5 -3.546875 3.1875 -4.03125 C 2.96875 -4.34375 2.53125 -4.625 1.984375 -4.625 C 0.359375 -4.625 0.359375 -2.71875 0.359375 -2.21875 C 0.359375 -1.71875 0.359375 0.140625 1.984375 0.140625 C 3.59375 0.140625 3.59375 -1.71875 3.59375 -2.21875 Z M 1.984375 -0.0625 C 1.65625 -0.0625 1.234375 -0.25 1.09375 -0.8125 C 1 -1.21875 1 -1.796875 1 -2.3125 C 1 -2.828125 1 -3.359375 1.09375 -3.734375 C 1.25 -4.28125 1.6875 -4.4375 1.984375 -4.4375 C 2.359375 -4.4375 2.71875 -4.203125 2.84375 -3.796875 C 2.953125 -3.421875 2.96875 -2.921875 2.96875 -2.3125 C 2.96875 -1.796875 2.96875 -1.28125 2.875 -0.84375 C 2.734375 -0.203125 2.265625 -0.0625 1.984375 -0.0625 Z M 1.984375 -0.0625 "/>
</g>
<g id="glyph-2-3">
<path d="M 2.90625 -2.078125 C 2.90625 -0.34375 2.0625 -0.078125 1.640625 -0.078125 C 1.484375 -0.078125 1.109375 -0.09375 0.921875 -0.3125 C 1.21875 -0.34375 1.234375 -0.578125 1.234375 -0.640625 C 1.234375 -0.8125 1.109375 -0.96875 0.90625 -0.96875 C 0.703125 -0.96875 0.578125 -0.828125 0.578125 -0.625 C 0.578125 -0.15625 0.96875 0.140625 1.640625 0.140625 C 2.640625 0.140625 3.578125 -0.796875 3.578125 -2.296875 C 3.578125 -4.015625 2.8125 -4.625 2 -4.625 C 1.765625 -4.625 1.296875 -4.59375 0.890625 -4.203125 C 0.65625 -3.96875 0.375 -3.703125 0.375 -3.078125 C 0.375 -2.1875 1.078125 -1.53125 1.890625 -1.53125 C 2.453125 -1.53125 2.75 -1.90625 2.90625 -2.21875 Z M 1.9375 -1.734375 C 1.65625 -1.734375 1.40625 -1.8125 1.203125 -2.140625 C 1.046875 -2.390625 1.046875 -2.6875 1.046875 -3.078125 C 1.046875 -3.484375 1.046875 -3.75 1.25 -4.03125 C 1.421875 -4.28125 1.640625 -4.421875 2 -4.421875 C 2.359375 -4.421875 2.578125 -4.203125 2.6875 -4.015625 C 2.875 -3.734375 2.890625 -3.234375 2.890625 -3 C 2.890625 -2.09375 2.375 -1.734375 1.9375 -1.734375 Z M 1.9375 -1.734375 "/>
</g>
<g id="glyph-2-4">
<path d="M 1.078125 -3.890625 C 1.4375 -3.796875 1.640625 -3.796875 1.75 -3.796875 C 2.671875 -3.796875 3.21875 -4.421875 3.21875 -4.53125 C 3.21875 -4.609375 3.171875 -4.625 3.140625 -4.625 C 3.125 -4.625 3.109375 -4.625 3.078125 -4.609375 C 2.90625 -4.546875 2.546875 -4.40625 2.03125 -4.40625 C 1.828125 -4.40625 1.46875 -4.421875 1.015625 -4.59375 C 0.9375 -4.625 0.921875 -4.625 0.921875 -4.625 C 0.828125 -4.625 0.828125 -4.546875 0.828125 -4.4375 L 0.828125 -2.390625 C 0.828125 -2.265625 0.828125 -2.1875 0.9375 -2.1875 C 1 -2.1875 1.015625 -2.1875 1.078125 -2.28125 C 1.375 -2.65625 1.8125 -2.71875 2.046875 -2.71875 C 2.46875 -2.71875 2.65625 -2.390625 2.6875 -2.328125 C 2.8125 -2.09375 2.859375 -1.828125 2.859375 -1.421875 C 2.859375 -1.21875 2.859375 -0.8125 2.640625 -0.5 C 2.46875 -0.25 2.171875 -0.078125 1.828125 -0.078125 C 1.375 -0.078125 0.90625 -0.328125 0.734375 -0.796875 C 1 -0.78125 1.140625 -0.953125 1.140625 -1.140625 C 1.140625 -1.4375 0.875 -1.484375 0.78125 -1.484375 C 0.78125 -1.484375 0.4375 -1.484375 0.4375 -1.109375 C 0.4375 -0.484375 1.015625 0.140625 1.84375 0.140625 C 2.734375 0.140625 3.515625 -0.515625 3.515625 -1.40625 C 3.515625 -2.1875 2.921875 -2.90625 2.0625 -2.90625 C 1.75 -2.90625 1.390625 -2.84375 1.078125 -2.578125 Z M 1.078125 -3.890625 "/>
</g>
<g id="glyph-2-5">
<path d="M 1.046875 -2.28125 C 1.046875 -2.84375 1.09375 -3.359375 1.359375 -3.796875 C 1.59375 -4.171875 1.96875 -4.421875 2.421875 -4.421875 C 2.625 -4.421875 2.90625 -4.375 3.046875 -4.1875 C 2.875 -4.171875 2.71875 -4.046875 2.71875 -3.84375 C 2.71875 -3.671875 2.84375 -3.515625 3.046875 -3.515625 C 3.265625 -3.515625 3.390625 -3.65625 3.390625 -3.859375 C 3.390625 -4.265625 3.09375 -4.625 2.40625 -4.625 C 1.40625 -4.625 0.375 -3.703125 0.375 -2.203125 C 0.375 -0.40625 1.21875 0.140625 2 0.140625 C 2.84375 0.140625 3.578125 -0.515625 3.578125 -1.421875 C 3.578125 -2.3125 2.875 -2.96875 2.0625 -2.96875 C 1.5 -2.96875 1.203125 -2.59375 1.046875 -2.28125 Z M 2 -0.078125 C 1.640625 -0.078125 1.375 -0.28125 1.21875 -0.59375 C 1.125 -0.796875 1.0625 -1.15625 1.0625 -1.5625 C 1.0625 -2.25 1.46875 -2.765625 2.03125 -2.765625 C 2.34375 -2.765625 2.5625 -2.640625 2.734375 -2.390625 C 2.90625 -2.125 2.90625 -1.828125 2.90625 -1.421875 C 2.90625 -1.03125 2.90625 -0.734375 2.71875 -0.453125 C 2.5625 -0.21875 2.328125 -0.078125 2 -0.078125 Z M 2 -0.078125 "/>
</g>
<g id="glyph-3-0">
<path d="M 4.875 -3.265625 C 4.953125 -3.34375 4.96875 -3.390625 4.96875 -3.4375 C 4.96875 -3.546875 4.890625 -3.609375 4.8125 -3.609375 C 4.734375 -3.609375 4.71875 -3.59375 4.640625 -3.5 L 3.109375 -1.984375 L 1.578125 -3.515625 C 1.5 -3.578125 1.484375 -3.609375 1.421875 -3.609375 C 1.3125 -3.609375 1.234375 -3.53125 1.234375 -3.4375 C 1.234375 -3.375 1.265625 -3.359375 1.34375 -3.265625 L 2.859375 -1.75 L 1.34375 -0.234375 C 1.25 -0.125 1.234375 -0.09375 1.234375 -0.0625 C 1.234375 0.046875 1.3125 0.125 1.421875 0.125 C 1.484375 0.125 1.5 0.09375 1.578125 0.015625 L 3.109375 -1.5 L 4.703125 0.078125 C 4.734375 0.109375 4.765625 0.125 4.8125 0.125 C 4.890625 0.125 4.96875 0.0625 4.96875 -0.0625 C 4.96875 -0.109375 4.96875 -0.125 4.9375 -0.140625 C 4.921875 -0.171875 3.578125 -1.53125 3.359375 -1.734375 Z M 4.875 -3.265625 "/>
</g>
</g>
</defs>
<g fill="rgb(13.723755%, 23.922729%, 30.195618%)" fill-opacity="1">
<use xlink:href="#glyph-0-0" x="22.36" y="18.126"/>
<use xlink:href="#glyph-0-1" x="25.035847" y="18.126"/>
<use xlink:href="#glyph-0-2" x="28.861674" y="18.126"/>
<use xlink:href="#glyph-0-3" x="31.392466" y="18.126"/>
<use xlink:href="#glyph-0-3" x="34.685494" y="18.126"/>
</g>
<g fill="rgb(13.723755%, 23.922729%, 30.195618%)" fill-opacity="1">
<use xlink:href="#glyph-0-4" x="40.447248" y="18.126"/>
<use xlink:href="#glyph-0-5" x="43.740276" y="18.126"/>
<use xlink:href="#glyph-0-6" x="47.445456" y="18.126"/>
<use xlink:href="#glyph-0-7" x="51.271283" y="18.126"/>
<use xlink:href="#glyph-0-3" x="54.111711" y="18.126"/>
<use xlink:href="#glyph-0-4" x="57.40474" y="18.126"/>
<use xlink:href="#glyph-0-8" x="60.697768" y="18.126"/>
<use xlink:href="#glyph-0-0" x="64.523595" y="18.126"/>
<use xlink:href="#glyph-0-9" x="67.199442" y="18.126"/>
<use xlink:href="#glyph-0-10" x="68.9673" y="18.126"/>
<use xlink:href="#glyph-0-3" x="72.381673" y="18.126"/>
</g>
<g fill="rgb(13.723755%, 23.922729%, 30.195618%)" fill-opacity="1">
<use xlink:href="#glyph-0-11" x="78.143426" y="18.126"/>
<use xlink:href="#glyph-0-9" x="83.204313" y="18.126"/>
<use xlink:href="#glyph-0-6" x="84.972171" y="18.126"/>
<use xlink:href="#glyph-0-12" x="88.797998" y="18.126"/>
</g>
<g fill="rgb(13.723755%, 23.922729%, 30.195618%)" fill-opacity="1">
<use xlink:href="#glyph-0-5" x="92.630798" y="18.126"/>
</g>
<g fill="rgb(13.723755%, 23.922729%, 30.195618%)" fill-opacity="1">
<use xlink:href="#glyph-0-11" x="96.126764" y="18.126"/>
<use xlink:href="#glyph-0-7" x="101.187651" y="18.126"/>
<use xlink:href="#glyph-0-13" x="104.02808" y="18.126"/>
</g>
<g fill="rgb(13.723755%, 23.922729%, 30.195618%)" fill-opacity="1">
<use xlink:href="#glyph-1-0" x="108.556" y="18.126"/>
</g>
<g fill="rgb(13.723755%, 23.922729%, 30.195618%)" fill-opacity="1">
<use xlink:href="#glyph-2-0" x="116.097" y="18.126"/>
</g>
<g fill="rgb(13.723755%, 23.922729%, 30.195618%)" fill-opacity="1">
<use xlink:href="#glyph-2-1" x="124.479508" y="18.126"/>
<use xlink:href="#glyph-2-2" x="128.451087" y="18.126"/>
</g>
<path fill="none" stroke-width="1.0959" stroke-linecap="butt" stroke-linejoin="miter" stroke="rgb(99.607849%, 49.804688%, 17.64679%)" stroke-opacity="1" stroke-miterlimit="10" d="M 34.014844 185.502813 C 34.014844 185.502813 34.882031 185.362188 35.214062 185.27625 C 35.546094 185.190313 36.077344 185.022344 36.409375 184.893438 C 36.741406 184.764531 37.272656 184.522344 37.604687 184.346563 C 37.936719 184.174688 38.467969 183.858281 38.8 183.643438 C 39.132031 183.428594 39.667187 183.045781 39.999219 182.791875 C 40.33125 182.537969 40.8625 182.096563 41.194531 181.811406 C 41.526562 181.52625 42.057812 181.037969 42.389844 180.729375 C 42.721875 180.420781 43.257031 179.909063 43.589062 179.58875 C 43.921094 179.268438 44.452344 178.741094 44.784375 178.420781 C 45.116406 178.100469 45.647656 177.58875 45.979687 177.280156 C 46.311719 176.975469 46.842969 176.491094 47.175 176.209844 C 47.507031 175.928594 48.042187 175.495 48.374219 175.252813 C 48.70625 175.010625 49.2375 174.647344 49.569531 174.452031 C 49.901562 174.256719 50.432812 173.983281 50.764844 173.846563 C 51.096875 173.709844 51.632031 173.537969 51.960156 173.46375 C 52.292187 173.393438 52.827344 173.327031 53.159375 173.327031 C 53.491406 173.323125 54.022656 173.373906 54.354687 173.440313 C 54.686719 173.506719 55.217969 173.674688 55.55 173.811406 C 55.882031 173.944219 56.417187 174.221563 56.749219 174.420781 C 57.08125 174.623906 57.6125 174.998906 57.944531 175.256719 C 58.276562 175.518438 58.807812 175.979375 59.139844 176.287969 C 59.471875 176.592656 60.003125 177.123906 60.335156 177.467656 C 60.667187 177.811406 61.202344 178.397344 61.534375 178.764531 C 61.866406 179.131719 62.397656 179.745 62.729687 180.123906 C 63.061719 180.502813 63.592969 181.12 63.925 181.495 C 64.257031 181.87 64.792187 182.471563 65.124219 182.834844 C 65.45625 183.194219 65.9875 183.760625 66.319531 184.092656 C 66.651562 184.428594 67.182812 184.940313 67.514844 185.233281 C 67.846875 185.530156 68.378125 185.971563 68.710156 186.221563 C 69.042187 186.471563 69.577344 186.834844 69.909375 187.034063 C 70.241406 187.233281 70.772656 187.510625 71.104687 187.655156 C 71.436719 187.799688 71.967969 187.987188 72.3 188.077031 C 72.632031 188.170781 73.167187 188.268438 73.499219 188.3075 C 73.827344 188.346563 74.3625 188.366094 74.694531 188.358281 C 75.026562 188.354375 75.557812 188.303594 75.889844 188.256719 C 76.221875 188.205938 76.753125 188.100469 77.085156 188.022344 C 77.417187 187.944219 77.952344 187.791875 78.284375 187.694219 C 78.616406 187.596563 79.147656 187.420781 79.479687 187.311406 C 79.811719 187.198125 80.342969 187.014531 80.675 186.905156 C 81.007031 186.791875 81.538281 186.616094 81.870312 186.510625 C 82.202344 186.409063 82.7375 186.252813 83.069531 186.170781 C 83.401562 186.084844 83.932812 185.959844 84.264844 185.897344 C 84.596875 185.834844 85.128125 185.756719 85.460156 185.721563 C 85.792187 185.686406 86.327344 185.655156 86.659375 185.647344 C 86.991406 185.643438 87.522656 185.662969 87.854687 185.686406 C 88.186719 185.709844 88.717969 185.772344 89.05 185.823125 C 89.382031 185.87 89.913281 185.975469 90.245312 186.045781 C 90.577344 186.116094 91.1125 186.248906 91.444531 186.330938 C 91.776562 186.416875 92.307812 186.565313 92.639844 186.655156 C 92.971875 186.745 93.503125 186.897344 93.835156 186.983281 C 94.167187 187.069219 94.702344 187.205938 95.034375 187.27625 C 95.366406 187.346563 95.897656 187.452031 96.229687 187.498906 C 96.561719 187.549688 97.092969 187.604375 97.425 187.62 C 97.757031 187.635625 98.288281 187.631719 98.620312 187.604375 C 98.952344 187.580938 99.4875 187.502813 99.819531 187.4325 C 100.151562 187.358281 100.682812 187.202031 101.014844 187.080938 C 101.346875 186.955938 101.878125 186.717656 102.210156 186.541875 C 102.542187 186.366094 103.073437 186.041875 103.405469 185.819219 C 103.7375 185.592656 104.272656 185.190313 104.604687 184.916875 C 104.936719 184.647344 105.467969 184.174688 105.8 183.862188 C 106.132031 183.553594 106.663281 183.022344 106.995312 182.6825 C 107.327344 182.342656 107.8625 181.768438 108.194531 181.409063 C 108.526562 181.049688 109.057812 180.455938 109.389844 180.092656 C 109.721875 179.725469 110.253125 179.131719 110.585156 178.772344 C 110.917187 178.412969 111.448437 177.83875 111.780469 177.498906 C 112.1125 177.159063 112.647656 176.627813 112.979687 176.319219 C 113.311719 176.014531 113.842969 175.545781 114.175 175.284063 C 114.507031 175.018438 115.038281 174.635625 115.370312 174.424688 C 115.702344 174.217656 116.2375 173.928594 116.569531 173.784063 C 116.901562 173.635625 117.432812 173.455938 117.764844 173.377813 C 118.096875 173.299688 118.628125 173.233281 118.960156 173.225469 C 119.292187 173.217656 119.823437 173.264531 120.155469 173.330938 C 120.4875 173.393438 121.022656 173.553594 121.354687 173.686406 C 121.686719 173.815313 122.217969 174.080938 122.55 174.272344 C 122.882031 174.467656 123.413281 174.827031 123.745312 175.069219 C 124.077344 175.315313 124.608594 175.752813 124.940625 176.041875 C 125.272656 176.327031 125.807812 176.823125 126.139844 177.143438 C 126.471875 177.459844 127.003125 177.995 127.335156 178.330938 C 127.667187 178.666875 128.198438 179.221563 128.530469 179.561406 C 128.8625 179.905156 129.397656 180.455938 129.729688 180.787969 C 130.061719 181.12 130.592969 181.647344 130.925 181.959844 C 131.257031 182.272344 131.788281 182.760625 132.120313 183.041875 C 132.452344 183.327031 132.983594 183.756719 133.315625 184.002813 C 133.647656 184.248906 134.182813 184.612188 134.514844 184.815313 C 134.846875 185.014531 135.378125 185.303594 135.710156 185.459844 C 136.042188 185.616094 136.573438 185.827031 136.905469 185.9325 C 137.2375 186.041875 137.772656 186.174688 138.104688 186.241094 C 138.436719 186.303594 138.967969 186.366094 139.3 186.389531 C 139.632031 186.412969 140.163281 186.412969 140.495313 186.40125 C 140.827344 186.389531 141.358594 186.342656 141.690625 186.3075 C 142.022656 186.268438 142.557813 186.186406 142.889844 186.131719 C 143.221875 186.077031 143.753125 185.975469 144.085156 185.912969 C 144.417188 185.850469 144.948438 185.745 145.280469 185.686406 C 145.6125 185.627813 146.14375 185.534063 146.475781 185.487188 C 146.807813 185.440313 147.342969 185.37 147.675 185.342656 C 148.007031 185.315313 148.538281 185.284063 148.870313 185.280156 C 149.202344 185.27625 149.733594 185.287969 150.065625 185.315313 C 150.397656 185.33875 150.932813 185.40125 151.264844 185.459844 C 151.596875 185.514531 152.128125 185.627813 152.460156 185.71375 C 152.792188 185.795781 153.323438 185.955938 153.655469 186.069219 C 153.9875 186.178594 154.51875 186.377813 154.850781 186.510625 C 155.182813 186.643438 155.717969 186.87 156.05 187.014531 C 156.382031 187.159063 156.913281 187.40125 157.245313 187.549688 C 157.577344 187.698125 158.108594 187.940313 158.440625 188.080938 C 158.772656 188.221563 159.307813 188.448125 159.639844 188.569219 C 159.971875 188.694219 160.503125 188.881719 160.835156 188.979375 C 161.167188 189.077031 161.698438 189.209844 162.030469 189.272344 C 162.3625 189.330938 162.89375 189.397344 163.225781 189.412969 C 163.557813 189.424688 164.092969 189.412969 164.425 189.373906 C 164.757031 189.334844 165.288281 189.233281 165.620313 189.139531 C 165.952344 189.041875 166.483594 188.846563 166.815625 188.694219 C 167.147656 188.537969 167.682813 188.245 168.010938 188.034063 C 168.342969 187.823125 168.878125 187.440313 169.210156 187.174688 C 169.542188 186.909063 170.073438 186.440313 170.405469 186.131719 C 170.7375 185.819219 171.26875 185.280156 171.600781 184.928594 C 171.932813 184.580938 172.467969 183.987188 172.8 183.608281 C 173.132031 183.233281 173.663281 182.600469 173.995313 182.209844 C 174.327344 181.815313 174.858594 181.174688 175.190625 180.780156 C 175.522656 180.385625 176.053906 179.748906 176.385938 179.37 C 176.717969 178.987188 177.253125 178.381719 177.585156 178.02625 C 177.917188 177.666875 178.448438 177.116094 178.780469 176.799688 C 179.1125 176.479375 179.64375 175.998906 179.975781 175.729375 C 180.307813 175.459844 180.842969 175.069219 181.175 174.858281 C 181.507031 174.643438 182.038281 174.354375 182.370313 174.205938 C 182.702344 174.061406 183.233594 173.877813 183.565625 173.799688 C 183.897656 173.721563 184.428906 173.65125 184.760938 173.639531 C 185.092969 173.631719 185.628125 173.674688 185.960156 173.733281 C 186.292188 173.787969 186.823438 173.936406 187.155469 174.0575 C 187.4875 174.178594 188.01875 174.420781 188.350781 174.596563 C 188.682813 174.772344 189.217969 175.096563 189.55 175.315313 C 189.878125 175.537969 190.413281 175.928594 190.745313 176.1825 C 191.077344 176.440313 191.608594 176.877813 191.940625 177.155156 C 192.272656 177.4325 192.803906 177.893438 193.135938 178.1825 C 193.467969 178.471563 194.003125 178.940313 194.335156 179.225469 C 194.667188 179.514531 195.198438 179.967656 195.530469 180.241094 C 195.8625 180.514531 196.39375 180.940313 196.725781 181.190313 C 197.057813 181.440313 197.589063 181.823125 197.921094 182.041875 C 198.253125 182.260625 198.788281 182.584844 199.120313 182.768438 C 199.452344 182.948125 199.983594 183.21375 200.315625 183.354375 C 200.647656 183.498906 201.178906 183.690313 201.510938 183.795781 C 201.842969 183.897344 202.378125 184.02625 202.710156 184.08875 C 203.042188 184.155156 203.573438 184.221563 203.905469 184.252813 C 204.2375 184.280156 204.76875 184.299688 205.100781 184.299688 C 205.432813 184.299688 205.964063 184.280156 206.296094 184.260625 C 206.628125 184.241094 207.163281 184.194219 207.495313 184.162969 C 207.827344 184.131719 208.358594 184.073125 208.690625 184.041875 C 209.022656 184.010625 209.553906 183.955938 209.885938 183.928594 C 210.217969 183.905156 210.753125 183.87 211.085156 183.862188 C 211.417188 183.850469 211.948438 183.850469 212.280469 183.862188 C 212.6125 183.877813 213.14375 183.920781 213.475781 183.96375 C 213.807813 184.006719 214.339063 184.100469 214.671094 184.174688 C 215.003125 184.252813 215.538281 184.397344 215.870313 184.506719 C 216.202344 184.616094 216.733594 184.823125 217.065625 184.96375 C 217.397656 185.104375 217.928906 185.362188 218.260938 185.530156 C 218.592969 185.702031 219.124219 185.998906 219.45625 186.190313 C 219.788281 186.385625 220.323438 186.71375 220.655469 186.920781 C 220.9875 187.131719 221.51875 187.475469 221.850781 187.690313 C 222.182813 187.90125 222.714063 188.245 223.046094 188.452031 C 223.378125 188.659063 223.913281 188.987188 224.245313 189.174688 C 224.577344 189.366094 225.108594 189.655156 225.440625 189.815313 C 225.772656 189.975469 226.303906 190.209844 226.635938 190.330938 C 226.967969 190.452031 227.499219 190.616094 227.83125 190.686406 C 228.163281 190.760625 228.698438 190.834844 229.030469 190.854375 C 229.3625 190.87 229.89375 190.850469 230.225781 190.803594 C 230.557813 190.760625 231.089063 190.635625 231.421094 190.52625 C 231.753125 190.416875 232.288281 190.190313 232.620313 190.018438 C 232.952344 189.846563 233.483594 189.514531 233.815625 189.280156 C 234.147656 189.049688 234.678906 188.623906 235.010938 188.334844 C 235.342969 188.045781 235.874219 187.537969 236.20625 187.202031 C 236.538281 186.866094 237.073438 186.287969 237.405469 185.916875 C 237.7375 185.545781 238.26875 184.916875 238.600781 184.522344 C 238.932813 184.127813 239.464063 183.471563 239.796094 183.065313 C 240.128125 182.659063 240.659375 181.998906 240.991406 181.596563 C 241.323438 181.194219 241.858594 180.549688 242.190625 180.162969 C 242.522656 179.780156 243.053906 179.174688 243.385938 178.819219 C 243.717969 178.46375 244.249219 177.916875 244.58125 177.600469 C 244.913281 177.287969 245.448438 176.819219 245.780469 176.5575 C 246.1125 176.291875 246.64375 175.912969 246.975781 175.709844 C 247.307813 175.506719 247.839063 175.229375 248.171094 175.08875 C 248.503125 174.948125 249.034375 174.77625 249.366406 174.702031 C 249.698438 174.627813 250.233594 174.561406 250.565625 174.549688 C 250.897656 174.537969 251.428906 174.577031 251.760938 174.627813 C 252.092969 174.674688 252.624219 174.8075 252.95625 174.912969 C 253.288281 175.014531 253.823438 175.229375 254.155469 175.377813 C 254.4875 175.530156 255.01875 175.811406 255.350781 175.995 C 255.682813 176.1825 256.214063 176.510625 256.546094 176.721563 C 256.878125 176.9325 257.409375 177.291875 257.741406 177.518438 C 258.073438 177.741094 258.608594 178.112188 258.940625 178.33875 C 259.272656 178.565313 259.803906 178.928594 260.135938 179.147344 C 260.467969 179.362188 260.999219 179.705938 261.33125 179.905156 C 261.663281 180.104375 262.198438 180.409063 262.526563 180.580938 C 262.858594 180.756719 263.39375 181.010625 263.725781 181.155156 C 264.057813 181.295781 264.589063 181.498906 264.921094 181.608281 C 265.253125 181.71375 265.784375 181.858281 266.116406 181.9325 C 266.448438 182.006719 266.983594 182.096563 267.315625 182.135625 C 267.647656 182.178594 268.178906 182.21375 268.510938 182.225469 C 268.842969 182.241094 269.374219 182.237188 269.70625 182.225469 C 270.038281 182.217656 270.569531 182.1825 270.901563 182.155156 C 271.233594 182.131719 272.100781 182.053594 272.100781 182.053594 " transform="matrix(1, 0, 0, -1, -15.175, 215.995)"/>
<path fill-rule="nonzero" fill="rgb(93.096924%, 93.911743%, 94.413757%)" fill-opacity="1" stroke-width="0.79701" stroke-linecap="butt" stroke-linejoin="miter" stroke="rgb(13.723755%, 23.922729%, 30.195618%)" stroke-opacity="1" stroke-miterlimit="10" d="M 34.014844 162.143438 L 34.014844 169.514531 L 150.2375 169.514531 L 150.2375 162.143438 Z M 34.014844 162.143438 " transform="matrix(1, 0, 0, -1, -15.175, 215.995)"/>
<g fill="rgb(13.723755%, 23.922729%, 30.195618%)" fill-opacity="1">
<use xlink:href="#glyph-0-2" x="263.305" y="52.456"/>
<use xlink:href="#glyph-0-5" x="265.835792" y="52.456"/>
</g>
<g fill="rgb(13.723755%, 23.922729%, 30.195618%)" fill-opacity="1">
<use xlink:href="#glyph-0-11" x="269.331758" y="52.456"/>
</g>
<g fill="rgb(13.723755%, 23.922729%, 30.195618%)" fill-opacity="1">
<use xlink:href="#glyph-0-14" x="276.868344" y="52.456"/>
<use xlink:href="#glyph-0-14" x="280.573524" y="52.456"/>
</g>
<path fill-rule="nonzero" fill="rgb(93.096924%, 93.911743%, 94.413757%)" fill-opacity="1" stroke-width="0.79701" stroke-linecap="butt" stroke-linejoin="miter" stroke="rgb(13.723755%, 23.922729%, 30.195618%)" stroke-opacity="1" stroke-miterlimit="10" d="M 92.128125 150.803594 L 92.128125 158.174688 L 208.350781 158.174688 L 208.350781 150.803594 Z M 92.128125 150.803594 " transform="matrix(1, 0, 0, -1, -15.175, 215.995)"/>
<g fill="rgb(13.723755%, 23.922729%, 30.195618%)" fill-opacity="1">
<use xlink:href="#glyph-0-2" x="263.305" y="63.795"/>
<use xlink:href="#glyph-0-5" x="265.835792" y="63.795"/>
</g>
<g fill="rgb(13.723755%, 23.922729%, 30.195618%)" fill-opacity="1">
<use xlink:href="#glyph-0-11" x="269.331758" y="63.795"/>
</g>
<g fill="rgb(13.723755%, 23.922729%, 30.195618%)" fill-opacity="1">
<use xlink:href="#glyph-0-14" x="276.868344" y="63.795"/>
<use xlink:href="#glyph-0-15" x="280.573524" y="63.795"/>
</g>
<path fill-rule="nonzero" fill="rgb(93.096924%, 93.911743%, 94.413757%)" fill-opacity="1" stroke-width="0.79701" stroke-linecap="butt" stroke-linejoin="miter" stroke="rgb(13.723755%, 23.922729%, 30.195618%)" stroke-opacity="1" stroke-miterlimit="10" d="M 150.2375 139.467656 L 150.2375 146.834844 L 266.460156 146.834844 L 266.460156 139.467656 Z M 150.2375 139.467656 " transform="matrix(1, 0, 0, -1, -15.175, 215.995)"/>
<g fill="rgb(13.723755%, 23.922729%, 30.195618%)" fill-opacity="1">
<use xlink:href="#glyph-0-2" x="263.305" y="75.133"/>
<use xlink:href="#glyph-0-5" x="265.835792" y="75.133"/>
</g>
<g fill="rgb(13.723755%, 23.922729%, 30.195618%)" fill-opacity="1">
<use xlink:href="#glyph-0-11" x="269.331758" y="75.133"/>
</g>
<g fill="rgb(13.723755%, 23.922729%, 30.195618%)" fill-opacity="1">
<use xlink:href="#glyph-0-14" x="276.868344" y="75.133"/>
<use xlink:href="#glyph-0-16" x="280.573524" y="75.133"/>
</g>
<path fill="none" stroke-width="0.79701" stroke-linecap="butt" stroke-linejoin="miter" stroke="rgb(19.999695%, 19.999695%, 19.999695%)" stroke-opacity="1" stroke-miterlimit="10" d="M 34.014844 130.397344 L 272.128125 130.397344 " transform="matrix(1, 0, 0, -1, -15.175, 215.995)"/>
<path fill="none" stroke-width="0.69739" stroke-linecap="butt" stroke-linejoin="miter" stroke="rgb(19.999695%, 19.999695%, 19.999695%)" stroke-opacity="1" stroke-miterlimit="10" d="M 34.014844 130.397344 L 34.014844 126.995 " transform="matrix(1, 0, 0, -1, -15.175, 215.995)"/>
<g fill="rgb(37.255859%, 41.96167%, 45.881653%)" fill-opacity="1">
<use xlink:href="#glyph-0-16" x="13.283" y="98.8"/>
<use xlink:href="#glyph-0-17" x="16.98818" y="98.8"/>
<use xlink:href="#glyph-0-17" x="20.69336" y="98.8"/>
</g>
<path fill="none" stroke-width="0.69739" stroke-linecap="butt" stroke-linejoin="miter" stroke="rgb(19.999695%, 19.999695%, 19.999695%)" stroke-opacity="1" stroke-miterlimit="10" d="M 92.128125 130.397344 L 92.128125 126.995 " transform="matrix(1, 0, 0, -1, -15.175, 215.995)"/>
<g fill="rgb(37.255859%, 41.96167%, 45.881653%)" fill-opacity="1">
<use xlink:href="#glyph-0-16" x="71.393" y="98.8"/>
<use xlink:href="#glyph-0-16" x="75.09818" y="98.8"/>
<use xlink:href="#glyph-0-17" x="78.80336" y="98.8"/>
</g>
<path fill="none" stroke-width="0.69739" stroke-linecap="butt" stroke-linejoin="miter" stroke="rgb(19.999695%, 19.999695%, 19.999695%)" stroke-opacity="1" stroke-miterlimit="10" d="M 150.2375 130.397344 L 150.2375 126.995 " transform="matrix(1, 0, 0, -1, -15.175, 215.995)"/>
<g fill="rgb(37.255859%, 41.96167%, 45.881653%)" fill-opacity="1">
<use xlink:href="#glyph-0-16" x="129.504" y="98.8"/>
<use xlink:href="#glyph-0-18" x="133.20918" y="98.8"/>
<use xlink:href="#glyph-0-17" x="136.91436" y="98.8"/>
</g>
<path fill="none" stroke-width="0.69739" stroke-linecap="butt" stroke-linejoin="miter" stroke="rgb(19.999695%, 19.999695%, 19.999695%)" stroke-opacity="1" stroke-miterlimit="10" d="M 208.350781 130.397344 L 208.350781 126.995 " transform="matrix(1, 0, 0, -1, -15.175, 215.995)"/>
<g fill="rgb(37.255859%, 41.96167%, 45.881653%)" fill-opacity="1">
<use xlink:href="#glyph-0-16" x="187.614" y="98.8"/>
<use xlink:href="#glyph-0-19" x="191.31918" y="98.8"/>
<use xlink:href="#glyph-0-17" x="195.02436" y="98.8"/>
</g>
<path fill="none" stroke-width="0.69739" stroke-linecap="butt" stroke-linejoin="miter" stroke="rgb(19.999695%, 19.999695%, 19.999695%)" stroke-opacity="1" stroke-miterlimit="10" d="M 266.460156 130.397344 L 266.460156 126.995 " transform="matrix(1, 0, 0, -1, -15.175, 215.995)"/>
<g fill="rgb(37.255859%, 41.96167%, 45.881653%)" fill-opacity="1">
<use xlink:href="#glyph-0-20" x="245.724" y="98.8"/>
<use xlink:href="#glyph-0-15" x="249.42918" y="98.8"/>
<use xlink:href="#glyph-0-17" x="253.13436" y="98.8"/>
</g>
<g fill="rgb(37.255859%, 41.96167%, 45.881653%)" fill-opacity="1">
<use xlink:href="#glyph-0-21" x="263.305" y="87.991"/>
<use xlink:href="#glyph-0-9" x="269.189492" y="87.991"/>
<use xlink:href="#glyph-0-6" x="270.957351" y="87.991"/>
<use xlink:href="#glyph-0-8" x="274.783177" y="87.991"/>
<use xlink:href="#glyph-0-0" x="278.609004" y="87.991"/>
<use xlink:href="#glyph-0-3" x="281.284851" y="87.991"/>
</g>
<g fill="rgb(13.723755%, 23.922729%, 30.195618%)" fill-opacity="1">
<use xlink:href="#glyph-0-0" x="62.046" y="107.984"/>
<use xlink:href="#glyph-0-1" x="64.721847" y="107.984"/>
<use xlink:href="#glyph-0-3" x="68.547674" y="107.984"/>
</g>
<g fill="rgb(13.723755%, 23.922729%, 30.195618%)" fill-opacity="1">
<use xlink:href="#glyph-0-7" x="74.309427" y="107.984"/>
<use xlink:href="#glyph-0-22" x="77.149856" y="107.984"/>
<use xlink:href="#glyph-0-21" x="80.709284" y="107.984"/>
<use xlink:href="#glyph-0-3" x="86.593776" y="107.984"/>
</g>
<g fill="rgb(13.723755%, 23.922729%, 30.195618%)" fill-opacity="1">
<use xlink:href="#glyph-0-0" x="92.35553" y="107.984"/>
<use xlink:href="#glyph-0-1" x="95.031377" y="107.984"/>
<use xlink:href="#glyph-0-2" x="98.857203" y="107.984"/>
<use xlink:href="#glyph-0-3" x="101.387995" y="107.984"/>
<use xlink:href="#glyph-0-3" x="104.681024" y="107.984"/>
<use xlink:href="#glyph-0-13" x="107.974052" y="107.984"/>
</g>
<g fill="rgb(13.723755%, 23.922729%, 30.195618%)" fill-opacity="1">
<use xlink:href="#glyph-0-22" x="112.507719" y="107.984"/>
<use xlink:href="#glyph-0-7" x="116.067147" y="107.984"/>
</g>
<g fill="rgb(13.723755%, 23.922729%, 30.195618%)" fill-opacity="1">
<use xlink:href="#glyph-0-2" x="121.376301" y="107.984"/>
<use xlink:href="#glyph-0-5" x="123.907093" y="107.984"/>
</g>
<g fill="rgb(13.723755%, 23.922729%, 30.195618%)" fill-opacity="1">
<use xlink:href="#glyph-0-11" x="127.403059" y="107.984"/>
<use xlink:href="#glyph-0-7" x="132.463945" y="107.984"/>
</g>
<g fill="rgb(13.723755%, 23.922729%, 30.195618%)" fill-opacity="1">
<use xlink:href="#glyph-0-5" x="137.773099" y="107.984"/>
<use xlink:href="#glyph-0-23" x="141.478279" y="107.984"/>
</g>
<g fill="rgb(13.723755%, 23.922729%, 30.195618%)" fill-opacity="1">
<use xlink:href="#glyph-0-0" x="146.211397" y="107.984"/>
<use xlink:href="#glyph-0-1" x="148.887244" y="107.984"/>
<use xlink:href="#glyph-0-3" x="152.713071" y="107.984"/>
</g>
<g fill="rgb(13.723755%, 23.922729%, 30.195618%)" fill-opacity="1">
<use xlink:href="#glyph-2-3" x="158.48" y="107.984"/>
<use xlink:href="#glyph-2-4" x="162.451579" y="107.984"/>
</g>
<g fill="rgb(13.723755%, 23.922729%, 30.195618%)" fill-opacity="1">
<use xlink:href="#glyph-3-0" x="168.236" y="107.984"/>
</g>
<g fill="rgb(13.723755%, 23.922729%, 30.195618%)" fill-opacity="1">
<use xlink:href="#glyph-2-5" x="176.277" y="107.984"/>
<use xlink:href="#glyph-2-2" x="180.248579" y="107.984"/>
</g>
<g fill="rgb(13.723755%, 23.922729%, 30.195618%)" fill-opacity="1">
<use xlink:href="#glyph-0-21" x="186.689" y="107.984"/>
<use xlink:href="#glyph-0-22" x="192.573492" y="107.984"/>
<use xlink:href="#glyph-0-0" x="196.13292" y="107.984"/>
<use xlink:href="#glyph-0-2" x="198.808767" y="107.984"/>
<use xlink:href="#glyph-0-9" x="201.339559" y="107.984"/>
<use xlink:href="#glyph-0-24" x="203.107417" y="107.984"/>
</g>
<path fill="none" stroke-width="0.79701" stroke-linecap="butt" stroke-linejoin="miter" stroke="rgb(39.605713%, 46.743774%, 51.13678%)" stroke-opacity="1" stroke-miterlimit="10" d="M 73.702344 90.143438 C 74.3 91.33875 75.694531 92.135625 77.686719 92.135625 L 129.245313 92.135625 C 131.2375 92.135625 132.632031 92.9325 133.229688 94.127813 C 133.827344 92.9325 135.221875 92.135625 137.214063 92.135625 L 188.772656 92.135625 C 190.764844 92.135625 192.159375 91.33875 192.757031 90.143438 " transform="matrix(1, 0, 0, -1, -15.175, 215.995)"/>
<g fill="rgb(13.723755%, 23.922729%, 30.195618%)" fill-opacity="1">
<use xlink:href="#glyph-1-1" x="91.878" y="118.149"/>
</g>
<g fill="rgb(13.723755%, 23.922729%, 30.195618%)" fill-opacity="1">
<use xlink:href="#glyph-2-0" x="100.29" y="118.149"/>
</g>
<g fill="rgb(13.723755%, 23.922729%, 30.195618%)" fill-opacity="1">
<use xlink:href="#glyph-2-5" x="108.672508" y="118.149"/>
<use xlink:href="#glyph-2-2" x="112.644087" y="118.149"/>
</g>
<g fill="rgb(13.723755%, 23.922729%, 30.195618%)" fill-opacity="1">
<use xlink:href="#glyph-0-4" x="119.086" y="118.149"/>
<use xlink:href="#glyph-0-5" x="122.379028" y="118.149"/>
<use xlink:href="#glyph-0-25" x="126.084208" y="118.149"/>
<use xlink:href="#glyph-0-8" x="127.852067" y="118.149"/>
<use xlink:href="#glyph-0-21" x="131.677893" y="118.149"/>
<use xlink:href="#glyph-0-6" x="137.562386" y="118.149"/>
<use xlink:href="#glyph-0-7" x="141.388212" y="118.149"/>
</g>
<g fill="rgb(13.723755%, 23.922729%, 30.195618%)" fill-opacity="1">
<use xlink:href="#glyph-0-26" x="117.024" y="130.274"/>
</g>
<g fill="rgb(13.723755%, 23.922729%, 30.195618%)" fill-opacity="1">
<use xlink:href="#glyph-0-26" x="117.024" y="134.259"/>
</g>
<g fill="rgb(13.723755%, 23.922729%, 30.195618%)" fill-opacity="1">
<use xlink:href="#glyph-0-26" x="117.024" y="138.244"/>
</g>
<path fill-rule="nonzero" fill="rgb(91.764832%, 92.547607%, 94.119263%)" fill-opacity="1" stroke-width="0.79701" stroke-linecap="butt" stroke-linejoin="miter" stroke="rgb(48.234558%, 54.351807%, 58.117676%)" stroke-opacity="1" stroke-miterlimit="10" d="M 73.702344 66.616094 L 73.702344 80.787969 L 133.229688 80.787969 L 133.229688 66.616094 Z M 73.702344 66.616094 " transform="matrix(1, 0, 0, -1, -15.175, 215.995)"/>
<path fill-rule="nonzero" fill="rgb(99.882507%, 84.939575%, 75.292969%)" fill-opacity="1" stroke-width="0.79701" stroke-linecap="butt" stroke-linejoin="miter" stroke="rgb(48.234558%, 54.351807%, 58.117676%)" stroke-opacity="1" stroke-miterlimit="10" d="M 133.229688 66.616094 L 133.229688 80.787969 L 192.757031 80.787969 L 192.757031 66.616094 Z M 133.229688 66.616094 " transform="matrix(1, 0, 0, -1, -15.175, 215.995)"/>
<g fill="rgb(37.255859%, 41.96167%, 45.881653%)" fill-opacity="1">
<use xlink:href="#glyph-0-16" x="75.322" y="144.582"/>
<use xlink:href="#glyph-0-17" x="79.02718" y="144.582"/>
<use xlink:href="#glyph-0-17" x="82.73236" y="144.582"/>
<use xlink:href="#glyph-0-27" x="86.43754" y="144.582"/>
<use xlink:href="#glyph-0-16" x="90.14272" y="144.582"/>
<use xlink:href="#glyph-0-15" x="93.8479" y="144.582"/>
<use xlink:href="#glyph-0-19" x="97.55308" y="144.582"/>
</g>
<g fill="rgb(37.255859%, 41.96167%, 45.881653%)" fill-opacity="1">
<use xlink:href="#glyph-0-16" x="134.85" y="144.582"/>
<use xlink:href="#glyph-0-16" x="138.55518" y="144.582"/>
<use xlink:href="#glyph-0-17" x="142.26036" y="144.582"/>
<use xlink:href="#glyph-0-27" x="145.96554" y="144.582"/>
<use xlink:href="#glyph-0-16" x="149.67072" y="144.582"/>
<use xlink:href="#glyph-0-28" x="153.3759" y="144.582"/>
<use xlink:href="#glyph-0-19" x="157.08108" y="144.582"/>
</g>
<g fill="rgb(13.723755%, 23.922729%, 30.195618%)" fill-opacity="1">
<use xlink:href="#glyph-0-2" x="30.634" y="144.582"/>
<use xlink:href="#glyph-0-5" x="33.164792" y="144.582"/>
</g>
<g fill="rgb(13.723755%, 23.922729%, 30.195618%)" fill-opacity="1">
<use xlink:href="#glyph-0-11" x="36.660758" y="144.582"/>
</g>
<g fill="rgb(13.723755%, 23.922729%, 30.195618%)" fill-opacity="1">
<use xlink:href="#glyph-0-14" x="44.197344" y="144.582"/>
<use xlink:href="#glyph-0-14" x="47.902524" y="144.582"/>
</g>
<path fill-rule="nonzero" fill="rgb(99.882507%, 84.939575%, 75.292969%)" fill-opacity="1" stroke-width="0.79701" stroke-linecap="butt" stroke-linejoin="miter" stroke="rgb(48.234558%, 54.351807%, 58.117676%)" stroke-opacity="1" stroke-miterlimit="10" d="M 73.702344 45.354375 L 73.702344 59.530156 L 133.229688 59.530156 L 133.229688 45.354375 Z M 73.702344 45.354375 " transform="matrix(1, 0, 0, -1, -15.175, 215.995)"/>
<path fill-rule="nonzero" fill="rgb(81.019592%, 83.262634%, 84.643555%)" fill-opacity="1" stroke-width="0.79701" stroke-linecap="butt" stroke-linejoin="miter" stroke="rgb(48.234558%, 54.351807%, 58.117676%)" stroke-opacity="1" stroke-miterlimit="10" d="M 133.229688 45.354375 L 133.229688 59.530156 L 192.757031 59.530156 L 192.757031 45.354375 Z M 133.229688 45.354375 " transform="matrix(1, 0, 0, -1, -15.175, 215.995)"/>
<g fill="rgb(37.255859%, 41.96167%, 45.881653%)" fill-opacity="1">
<use xlink:href="#glyph-0-16" x="75.322" y="165.842"/>
<use xlink:href="#glyph-0-16" x="79.02718" y="165.842"/>
<use xlink:href="#glyph-0-17" x="82.73236" y="165.842"/>
<use xlink:href="#glyph-0-27" x="86.43754" y="165.842"/>
<use xlink:href="#glyph-0-16" x="90.14272" y="165.842"/>
<use xlink:href="#glyph-0-28" x="93.8479" y="165.842"/>
<use xlink:href="#glyph-0-19" x="97.55308" y="165.842"/>
</g>
<g fill="rgb(37.255859%, 41.96167%, 45.881653%)" fill-opacity="1">
<use xlink:href="#glyph-0-16" x="134.85" y="165.842"/>
<use xlink:href="#glyph-0-18" x="138.55518" y="165.842"/>
<use xlink:href="#glyph-0-17" x="142.26036" y="165.842"/>
<use xlink:href="#glyph-0-27" x="145.96554" y="165.842"/>
<use xlink:href="#glyph-0-16" x="149.67072" y="165.842"/>
<use xlink:href="#glyph-0-29" x="153.3759" y="165.842"/>
<use xlink:href="#glyph-0-19" x="157.08108" y="165.842"/>
</g>
<g fill="rgb(13.723755%, 23.922729%, 30.195618%)" fill-opacity="1">
<use xlink:href="#glyph-0-2" x="30.634" y="165.842"/>
<use xlink:href="#glyph-0-5" x="33.164792" y="165.842"/>
</g>
<g fill="rgb(13.723755%, 23.922729%, 30.195618%)" fill-opacity="1">
<use xlink:href="#glyph-0-11" x="36.660758" y="165.842"/>
</g>
<g fill="rgb(13.723755%, 23.922729%, 30.195618%)" fill-opacity="1">
<use xlink:href="#glyph-0-14" x="44.197344" y="165.842"/>
<use xlink:href="#glyph-0-15" x="47.902524" y="165.842"/>
</g>
<path fill-rule="nonzero" fill="rgb(81.019592%, 83.262634%, 84.643555%)" fill-opacity="1" stroke-width="0.79701" stroke-linecap="butt" stroke-linejoin="miter" stroke="rgb(48.234558%, 54.351807%, 58.117676%)" stroke-opacity="1" stroke-miterlimit="10" d="M 73.702344 24.096563 L 73.702344 38.268438 L 133.229688 38.268438 L 133.229688 24.096563 Z M 73.702344 24.096563 " transform="matrix(1, 0, 0, -1, -15.175, 215.995)"/>
<path fill-rule="nonzero" fill="rgb(91.764832%, 92.547607%, 94.119263%)" fill-opacity="1" stroke-width="0.79701" stroke-linecap="butt" stroke-linejoin="miter" stroke="rgb(48.234558%, 54.351807%, 58.117676%)" stroke-opacity="1" stroke-miterlimit="10" d="M 133.229688 24.096563 L 133.229688 38.268438 L 192.757031 38.268438 L 192.757031 24.096563 Z M 133.229688 24.096563 " transform="matrix(1, 0, 0, -1, -15.175, 215.995)"/>
<g fill="rgb(37.255859%, 41.96167%, 45.881653%)" fill-opacity="1">
<use xlink:href="#glyph-0-16" x="75.322" y="187.102"/>
<use xlink:href="#glyph-0-18" x="79.02718" y="187.102"/>
<use xlink:href="#glyph-0-17" x="82.73236" y="187.102"/>
<use xlink:href="#glyph-0-27" x="86.43754" y="187.102"/>
<use xlink:href="#glyph-0-16" x="90.14272" y="187.102"/>
<use xlink:href="#glyph-0-29" x="93.8479" y="187.102"/>
<use xlink:href="#glyph-0-19" x="97.55308" y="187.102"/>
</g>
<g fill="rgb(37.255859%, 41.96167%, 45.881653%)" fill-opacity="1">
<use xlink:href="#glyph-0-16" x="134.85" y="187.102"/>
<use xlink:href="#glyph-0-19" x="138.55518" y="187.102"/>
<use xlink:href="#glyph-0-17" x="142.26036" y="187.102"/>
<use xlink:href="#glyph-0-27" x="145.96554" y="187.102"/>
<use xlink:href="#glyph-0-20" x="149.67072" y="187.102"/>
<use xlink:href="#glyph-0-14" x="153.3759" y="187.102"/>
<use xlink:href="#glyph-0-19" x="157.08108" y="187.102"/>
</g>
<g fill="rgb(13.723755%, 23.922729%, 30.195618%)" fill-opacity="1">
<use xlink:href="#glyph-0-2" x="30.634" y="187.102"/>
<use xlink:href="#glyph-0-5" x="33.164792" y="187.102"/>
</g>
<g fill="rgb(13.723755%, 23.922729%, 30.195618%)" fill-opacity="1">
<use xlink:href="#glyph-0-11" x="36.660758" y="187.102"/>
</g>
<g fill="rgb(13.723755%, 23.922729%, 30.195618%)" fill-opacity="1">
<use xlink:href="#glyph-0-14" x="44.197344" y="187.102"/>
<use xlink:href="#glyph-0-16" x="47.902524" y="187.102"/>
</g>
<g fill="rgb(13.723755%, 23.922729%, 30.195618%)" fill-opacity="1">
<use xlink:href="#glyph-0-26" x="117.024" y="199.723"/>
</g>
<g fill="rgb(13.723755%, 23.922729%, 30.195618%)" fill-opacity="1">
<use xlink:href="#glyph-0-26" x="117.024" y="203.708"/>
</g>
<g fill="rgb(13.723755%, 23.922729%, 30.195618%)" fill-opacity="1">
<use xlink:href="#glyph-0-26" x="117.024" y="207.693"/>
</g>
<path fill="none" stroke-width="0.69739" stroke-linecap="butt" stroke-linejoin="miter" stroke="rgb(54.998779%, 54.998779%, 54.998779%)" stroke-opacity="1" stroke-dasharray="2.98883 2.98883" stroke-miterlimit="10" d="M 133.229688 66.049688 L 73.702344 60.096563 " transform="matrix(1, 0, 0, -1, -15.175, 215.995)"/>
<path fill="none" stroke-width="0.69739" stroke-linecap="butt" stroke-linejoin="miter" stroke="rgb(54.998779%, 54.998779%, 54.998779%)" stroke-opacity="1" stroke-dasharray="2.98883 2.98883" stroke-miterlimit="10" d="M 192.757031 66.049688 L 133.229688 60.096563 " transform="matrix(1, 0, 0, -1, -15.175, 215.995)"/>
<path fill="none" stroke-width="0.69739" stroke-linecap="butt" stroke-linejoin="miter" stroke="rgb(54.998779%, 54.998779%, 54.998779%)" stroke-opacity="1" stroke-dasharray="2.98883 2.98883" stroke-miterlimit="10" d="M 133.229688 44.787969 L 73.702344 38.834844 " transform="matrix(1, 0, 0, -1, -15.175, 215.995)"/>
<path fill="none" stroke-width="0.69739" stroke-linecap="butt" stroke-linejoin="miter" stroke="rgb(54.998779%, 54.998779%, 54.998779%)" stroke-opacity="1" stroke-dasharray="2.98883 2.98883" stroke-miterlimit="10" d="M 192.757031 44.787969 L 133.229688 38.834844 " transform="matrix(1, 0, 0, -1, -15.175, 215.995)"/>
<g fill="rgb(37.255859%, 41.96167%, 45.881653%)" fill-opacity="1">
<use xlink:href="#glyph-0-0" x="188.187" y="150.824"/>
<use xlink:href="#glyph-0-1" x="190.862847" y="150.824"/>
<use xlink:href="#glyph-0-3" x="194.688674" y="150.824"/>
<use xlink:href="#glyph-0-7" x="197.981702" y="150.824"/>
<use xlink:href="#glyph-0-3" x="200.822131" y="150.824"/>
</g>
<g fill="rgb(37.255859%, 41.96167%, 45.881653%)" fill-opacity="1">
<use xlink:href="#glyph-0-1" x="206.583884" y="150.824"/>
<use xlink:href="#glyph-0-5" x="210.409711" y="150.824"/>
<use xlink:href="#glyph-0-25" x="214.114891" y="150.824"/>
<use xlink:href="#glyph-0-12" x="215.882749" y="150.824"/>
</g>
<g fill="rgb(37.255859%, 41.96167%, 45.881653%)" fill-opacity="1">
<use xlink:href="#glyph-0-0" x="222.177301" y="150.824"/>
<use xlink:href="#glyph-0-1" x="224.853148" y="150.824"/>
<use xlink:href="#glyph-0-3" x="228.678975" y="150.824"/>
</g>
<g fill="rgb(37.255859%, 41.96167%, 45.881653%)" fill-opacity="1">
<use xlink:href="#glyph-0-7" x="234.447702" y="150.824"/>
<use xlink:href="#glyph-0-22" x="237.288131" y="150.824"/>
<use xlink:href="#glyph-0-21" x="240.847559" y="150.824"/>
<use xlink:href="#glyph-0-3" x="246.732051" y="150.824"/>
</g>
<g fill="rgb(37.255859%, 41.96167%, 45.881653%)" fill-opacity="1">
<use xlink:href="#glyph-0-0" x="188.187" y="158.794"/>
<use xlink:href="#glyph-0-1" x="190.862847" y="158.794"/>
<use xlink:href="#glyph-0-9" x="194.688674" y="158.794"/>
<use xlink:href="#glyph-0-2" x="196.456532" y="158.794"/>
<use xlink:href="#glyph-0-0" x="198.987324" y="158.794"/>
</g>
<g fill="rgb(37.255859%, 41.96167%, 45.881653%)" fill-opacity="1">
<use xlink:href="#glyph-0-30" x="201.453957" y="158.794"/>
</g>
<g fill="rgb(37.255859%, 41.96167%, 45.881653%)" fill-opacity="1">
<use xlink:href="#glyph-0-21" x="207.344029" y="158.794"/>
<use xlink:href="#glyph-0-9" x="213.228521" y="158.794"/>
<use xlink:href="#glyph-0-6" x="214.996379" y="158.794"/>
<use xlink:href="#glyph-0-8" x="218.822206" y="158.794"/>
<use xlink:href="#glyph-0-0" x="222.648033" y="158.794"/>
<use xlink:href="#glyph-0-3" x="225.32388" y="158.794"/>
<use xlink:href="#glyph-0-7" x="228.616908" y="158.794"/>
</g>
<g fill="rgb(37.255859%, 41.96167%, 45.881653%)" fill-opacity="1">
<use xlink:href="#glyph-0-22" x="188.187" y="176.747"/>
<use xlink:href="#glyph-0-6" x="191.746428" y="176.747"/>
<use xlink:href="#glyph-0-12" x="195.572254" y="176.747"/>
</g>
<g fill="rgb(37.255859%, 41.96167%, 45.881653%)" fill-opacity="1">
<use xlink:href="#glyph-0-7" x="201.866806" y="176.747"/>
<use xlink:href="#glyph-0-5" x="204.707235" y="176.747"/>
</g>
<g fill="rgb(37.255859%, 41.96167%, 45.881653%)" fill-opacity="1">
<use xlink:href="#glyph-0-12" x="210.88114" y="176.747"/>
<use xlink:href="#glyph-0-5" x="214.706967" y="176.747"/>
</g>
<g fill="rgb(37.255859%, 41.96167%, 45.881653%)" fill-opacity="1">
<use xlink:href="#glyph-0-0" x="220.887846" y="176.747"/>
<use xlink:href="#glyph-0-1" x="223.563693" y="176.747"/>
<use xlink:href="#glyph-0-3" x="227.389519" y="176.747"/>
<use xlink:href="#glyph-0-7" x="230.682548" y="176.747"/>
<use xlink:href="#glyph-0-3" x="233.522976" y="176.747"/>
</g>
</svg>
